<?xml version="1.0" encoding="iso-8859-1"?>
<svg version="1.1" xmlns="http://www.w3.org/2000/svg" xmlns:xlink="http://www.w3.org/1999/xlink" x="0px" y="0px"
 viewBox="0 0 512 512" style="enable-background:new 0 0 512 512;" xml:space="preserve">
<g>
	<g>
		<path d="M456.597,42.667h-93.931V21.333C362.667,9.551,353.115,0,341.333,0h-64h-64h-64C137.551,0,128,9.551,128,21.333v21.333
			H21.333C9.551,42.667,0,52.218,0,64v384c0,11.782,9.551,21.333,21.333,21.333H128v21.333c0,11.782,9.551,21.333,21.333,21.333h64
			h64h64c11.782,0,21.333-9.551,21.333-21.333v-21.333h93.931c30.598,0,55.403-24.805,55.403-55.403V98.069
			C512,67.471,487.195,42.667,456.597,42.667z M42.667,426.667V85.333H128v21.333H85.333C73.551,106.667,64,116.218,64,128
			c0,11.782,9.551,21.333,21.333,21.333H128v21.333H85.333C73.551,170.667,64,180.218,64,192s9.551,21.333,21.333,21.333H128v21.333
			H85.333C73.551,234.667,64,244.218,64,256s9.551,21.333,21.333,21.333H128v21.333H85.333C73.551,298.667,64,308.218,64,320
			s9.551,21.333,21.333,21.333H128v21.333H85.333C73.551,362.667,64,372.218,64,384c0,11.782,9.551,21.333,21.333,21.333H128v21.333
			H42.667z M170.667,448V64V42.667H192v426.667h-21.333V448z M234.667,42.667H256v426.667h-21.333V42.667z M320,469.333h-21.333
			V42.667H320V64v384V469.333z M469.333,413.931c0,7.034-5.702,12.736-12.736,12.736h-93.931V85.333h93.931
			c7.034,0,12.736,5.702,12.736,12.736V413.931z"/>
	</g>
</g>
</svg>
