<?xml version="1.0" encoding="iso-8859-1"?>
<!-- Generator: Adobe Illustrator 18.1.1, SVG Export Plug-In . SVG Version: 6.00 Build 0)  -->
<svg version="1.1" id="Capa_1" xmlns="http://www.w3.org/2000/svg" xmlns:xlink="http://www.w3.org/1999/xlink" x="0px" y="0px"
	 viewBox="0 0 21.001 21.001" style="enable-background:new 0 0 21.001 21.001;" xml:space="preserve">
<g>
	<g>
		<path style="fill:#030104;" d="M3.001,15.501c-0.552,0-1-0.448-1-1V8.119L1.448,8.395C0.953,8.643,0.353,8.441,0.106,7.948
			C-0.141,7.454,0.06,6.854,0.554,6.606l2-1c0.31-0.155,0.678-0.139,0.973,0.044c0.294,0.183,0.474,0.504,0.474,0.851v8
			C4.001,15.053,3.553,15.501,3.001,15.501z"/>
	</g>
	<g>
		<path style="fill:#030104;" d="M12.001,15.501h-5c-0.404,0-0.769-0.244-0.924-0.617c-0.155-0.374-0.069-0.804,0.217-1.09l4-4
			c0.254-0.254,0.394-0.591,0.394-0.95c0-0.358-0.14-0.695-0.394-0.949c-0.508-0.508-1.39-0.508-1.9,0.001
			C8.141,8.148,8.001,8.485,8.001,8.844c0,0.552-0.448,1-1,1s-1-0.448-1-1c0-0.894,0.348-1.733,0.98-2.364
			c1.265-1.263,3.464-1.263,4.727,0.001c0.632,0.631,0.979,1.471,0.979,2.363c0,0.893-0.348,1.733-0.979,2.364l-2.293,2.293h2.586
			c0.552,0,1,0.448,1,1S12.553,15.501,12.001,15.501z"/>
	</g>
	<path style="fill:#030104;" d="M19.956,9.878c0.338-0.457,0.545-1.016,0.545-1.627c0-1.517-1.234-2.75-2.75-2.75
		c-1.031,0-1.966,0.569-2.44,1.484c-0.254,0.49-0.063,1.094,0.428,1.348c0.49,0.254,1.094,0.062,1.348-0.428
		c0.128-0.249,0.383-0.404,0.664-0.404c0.414,0,0.75,0.336,0.75,0.75s-0.336,0.75-0.75,0.75c-0.552,0-1,0.448-1,1s0.448,1,1,1
		c0.689,0,1.25,0.561,1.25,1.25s-0.561,1.25-1.25,1.25s-1.25-0.561-1.25-1.25c0-0.552-0.448-1-1-1c-0.552,0-1,0.448-1,1
		c0,1.792,1.458,3.25,3.25,3.25s3.25-1.458,3.25-3.25C21.001,11.312,20.595,10.472,19.956,9.878z"/>
</g>
<g>
</g>
<g>
</g>
<g>
</g>
<g>
</g>
<g>
</g>
<g>
</g>
<g>
</g>
<g>
</g>
<g>
</g>
<g>
</g>
<g>
</g>
<g>
</g>
<g>
</g>
<g>
</g>
<g>
</g>
</svg>
