<?xml version="1.0" encoding="UTF-8" standalone="no"?>
<svg
		xmlns:dc="http://purl.org/dc/elements/1.1/"
		xmlns:cc="http://creativecommons.org/ns#"
		xmlns:rdf="http://www.w3.org/1999/02/22-rdf-syntax-ns#"
		xmlns:svg="http://www.w3.org/2000/svg"
		xmlns="http://www.w3.org/2000/svg"
		xmlns:sodipodi="http://sodipodi.sourceforge.net/DTD/sodipodi-0.dtd"
		xmlns:inkscape="http://www.inkscape.org/namespaces/inkscape"
		viewBox="0 -256 1800 1800"
		id="svg3986"
		version="1.1"
		inkscape:version="0.48.3.1 r9886"
		width="100%"
		height="100%"
		sodipodi:docname="th_list_font_awesome.svg">
	<metadata
			id="metadata3996">
		<rdf:RDF>
			<cc:Work
					rdf:about="">
				<dc:format>image/svg+xml</dc:format>
				<dc:type
						rdf:resource="http://purl.org/dc/dcmitype/StillImage" />
			</cc:Work>
		</rdf:RDF>
	</metadata>
	<defs
			id="defs3994" />
	<sodipodi:namedview
			pagecolor="#ffffff"
			bordercolor="#666666"
			borderopacity="1"
			objecttolerance="10"
			gridtolerance="10"
			guidetolerance="10"
			inkscape:pageopacity="0"
			inkscape:pageshadow="2"
			inkscape:window-width="640"
			inkscape:window-height="480"
			id="namedview3992"
			showgrid="false"
			inkscape:zoom="45.254834"
			inkscape:cx="1797.5054"
			inkscape:cy="1411.9548"
			inkscape:window-x="0"
			inkscape:window-y="25"
			inkscape:window-maximized="0"
			inkscape:current-layer="svg3986" />
	<g
			transform="matrix(1,0,0,-1,7.5932203,1369.3559)"
			id="g3988">
		<path
				d="M 512,288 V 96 Q 512,56 484,28 456,0 416,0 H 96 Q 56,0 28,28 0,56 0,96 v 192 q 0,40 28,68 28,28 68,28 h 320 q 40,0 68,-28 28,-28 28,-68 z m 0,512 V 608 q 0,-40 -28,-68 -28,-28 -68,-28 H 96 Q 56,512 28,540 0,568 0,608 v 192 q 0,40 28,68 28,28 68,28 h 320 q 40,0 68,-28 28,-28 28,-68 z M 1792,288 V 96 Q 1792,56 1764,28 1736,0 1696,0 H 736 q -40,0 -68,28 -28,28 -28,68 v 192 q 0,40 28,68 28,28 68,28 h 960 q 40,0 68,-28 28,-28 28,-68 z M 512,1312 v -192 q 0,-40 -28,-68 -28,-28 -68,-28 H 96 q -40,0 -68,28 -28,28 -28,68 v 192 q 0,40 28,68 28,28 68,28 h 320 q 40,0 68,-28 28,-28 28,-68 z M 1792,800 V 608 q 0,-40 -28,-68 -28,-28 -68,-28 H 736 q -40,0 -68,28 -28,28 -28,68 v 192 q 0,40 28,68 28,28 68,28 h 960 q 40,0 68,-28 28,-28 28,-68 z m 0,512 v -192 q 0,-40 -28,-68 -28,-28 -68,-28 H 736 q -40,0 -68,28 -28,28 -28,68 v 192 q 0,40 28,68 28,28 68,28 h 960 q 40,0 68,-28 28,-28 28,-68 z"
				id="path3990"
				inkscape:connector-curvature="0"
				style="fill:currentColor" />
	</g>
</svg>
