<?xml version="1.0" encoding="utf-8"?>
<!-- Svg Vector Icons : http://www.onlinewebfonts.com/icon -->
<!DOCTYPE svg PUBLIC "-//W3C//DTD SVG 1.1//EN" "http://www.w3.org/Graphics/SVG/1.1/DTD/svg11.dtd">
<svg version="1.1" xmlns="http://www.w3.org/2000/svg" xmlns:xlink="http://www.w3.org/1999/xlink" x="0px" y="0px" viewBox="0 0 1000 1000" enable-background="new 0 0 1000 1000" xml:space="preserve">
<metadata> Svg Vector Icons : http://www.onlinewebfonts.com/icon </metadata>
<g><g transform="translate(0.000000,511.000000) scale(0.100000,-0.100000)"><path d="M3523.8,4990c-1315.5-71.4-2375-327.4-2704.4-654.8c-111.1-111.1-132.9-190.5-85.3-311.5c105.2-261.9,690.5-502,1577.4-646.8c2047.7-337.3,4821.5-69.4,5418.8,525.8c152.8,150.8,152.8,281.7,0,432.5C7263.9,4799.5,5390.9,5091.1,3523.8,4990z"/><path d="M704.3,2690.3c0-642.9,4-712.3,37.7-785.7c170.6-377,1301.6-680.6,2849.3-761.9c1771.9-93.3,3597.3,184.5,4113.2,625c144.8,125,142.9,117.1,142.9,918.7v714.3l-148.8-75.4c-668.7-335.3-2025.8-555.6-3426.6-555.6c-1396.9,0-2724.3,214.3-3416.7,553.6l-150.8,73.4V2690.3z"/><path d="M704.3,541.5c0-799.6-2-791.7,144.8-916.7c371-317.5,1390.9-551.6,2722.3-625c446.4-23.8,1246-23.8,1593.3,0l263.9,17.8l162.7,140.9c371,323.4,775.8,525.8,1248,627c166.7,35.7,617.1,49.6,879,27.8l119.1-9.9l5.9,726.2l4,724.2l-150.8-73.4C6613.1,652.6,4166.6,470,2291.6,777.6c-573.4,93.2-1115.1,246-1436.5,402.8l-150.8,73.4V541.5z"/><path d="M7065.5-922.9c-27.8-33.7-65.5-111.1-83.3-172.6c-37.7-129-134.9-323.4-186.5-371c-31.7-29.8-45.6-29.8-156.7,0c-67.5,15.9-188.5,65.5-271.8,109.1c-218.3,115.1-246,111.1-430.6-75.4c-184.5-186.5-188.5-212.3-71.4-432.6c43.6-85.3,93.2-206.3,109.1-271.8c27.8-105.2,27.8-119.1-2-152.8c-45.6-49.6-238.1-148.8-375-190.5c-63.5-19.8-142.9-61.5-172.6-89.3c-55.5-51.6-57.5-57.5-57.5-261.9c0-208.3,0-208.3,61.5-259.9c33.7-27.8,111.1-65.5,172.6-83.3c129-37.7,323.4-135,371-186.5c29.8-31.7,29.8-45.6,0-156.8c-15.9-67.4-65.5-188.5-109.1-271.8c-115.1-218.2-111.1-246,75.4-430.6C6125-4405,6150.8-4409,6371.1-4292c85.3,43.6,206.3,93.3,271.8,109.1c105.2,27.8,119.1,27.8,152.8-2c49.6-45.6,146.8-236.1,188.5-373c19.8-63.5,59.5-140.9,91.3-174.6c51.6-55.6,57.5-57.5,256-57.5c194.4,0,202.4,2,257.9,57.5c33.7,33.7,69.4,103.2,89.3,172.6c39.7,132.9,136.9,327.4,188.5,375c31.7,29.8,45.6,29.8,156.8,0c67.4-15.9,188.5-65.5,271.8-109.1c218.3-115.1,246-111.1,430.6,75.4c184.5,186.5,188.5,212.3,71.4,432.5c-43.7,85.3-93.3,206.4-109.1,271.8c-27.8,105.2-27.8,119.1,2,152.8c45.6,49.6,238.1,148.8,375,190.5c63.5,19.8,142.8,61.5,172.6,89.3c55.6,51.6,57.6,59.5,57.6,256c0,194.4-2,202.4-57.6,257.9c-33.7,33.7-103.2,69.4-172.6,89.3c-132.9,39.7-327.4,136.9-375,188.5c-29.8,31.7-29.8,45.6,0,156.7c15.9,67.5,65.5,188.5,109.1,271.8c115.1,218.3,111.1,246-75.4,430.6c-186.5,184.5-212.3,188.5-432.5,71.4c-85.3-43.6-206.4-93.2-271.8-109.1c-105.2-27.8-119.1-27.8-152.8,2c-49.6,45.6-146.8,236.1-188.5,373c-19.8,63.5-59.5,140.9-91.3,174.6c-53.6,57.5-57.5,57.5-261.9,57.5C7117.1-861.3,7117.1-861.3,7065.5-922.9z M7587.4-1863.3c432.5-115.1,736.1-502,736.1-942.5c0-531.7-440.5-972.2-972.2-972.2c-531.8,0-972.2,440.5-972.2,972.2c0,434.5,301.6,825.4,728.2,942.5C7236.2-1827.6,7456.4-1827.6,7587.4-1863.3z"/><path d="M704.3-1661c0-799.6-2-791.7,144.8-916.7c448.4-382.9,1849.2-642.9,3484.2-644.9h402.8l-11.9,45.6c-7.9,23.8-17.9,154.8-23.8,291.7c-17.9,394.8,63.5,809.5,228.2,1160.7l73.4,158.7l-535.7-5.9c-1482.2-19.8-2879,192.4-3611.2,549.6l-150.8,73.4V-1661z"/></g></g>
</svg>