<?xml version="1.0" encoding="iso-8859-1"?>
<!-- Generator: Adobe Illustrator 19.0.0, SVG Export Plug-In . SVG Version: 6.00 Build 0)  -->
<svg version="1.1" xmlns="http://www.w3.org/2000/svg" xmlns:xlink="http://www.w3.org/1999/xlink" x="0px" y="0px"
	 viewBox="0 0 500 500" style="enable-background:new 0 0 500 500;" xml:space="preserve">
<g>
	<g>
		<path d="M445.31,11.72c0-6.468-5.248-11.72-11.72-11.72H66.406c-6.472,0-11.72,5.248-11.72,11.72v476.56
			c0,6.468,5.248,11.72,11.72,11.72h367.188c6.472,0,11.72-5.248,11.72-11.72V11.72H445.31z M89.842,50.78
			c0-4.312,3.5-7.812,7.812-7.812h304.688c4.312,0,7.812,3.5,7.812,7.812v85.94c0,4.312-3.5,7.812-7.812,7.812H97.654
			c-4.312,0-7.812-3.5-7.812-7.812V50.78z M306.038,261.716H98.17c-4.312,0-7.812-3.496-7.812-7.812c0-4.312,3.5-7.812,7.812-7.812
			h207.868c4.312,0,7.812,3.5,7.812,7.812C313.85,258.22,310.35,261.716,306.038,261.716z M313.85,292.968
			c0,4.316-3.5,7.812-7.812,7.812H98.17c-4.312,0-7.812-3.496-7.812-7.812c0-4.312,3.5-7.812,7.812-7.812h207.868
			C310.35,285.156,313.85,288.656,313.85,292.968z M306.038,222.656H98.17c-4.312,0-7.812-3.496-7.812-7.812
			c0-4.312,3.5-7.812,7.812-7.812h207.868c4.312,0,7.812,3.5,7.812,7.812C313.85,219.16,310.35,222.656,306.038,222.656z
			 M306.038,183.592H98.17c-4.312,0-7.812-3.496-7.812-7.812c0-4.312,3.5-7.812,7.812-7.812h207.868c4.312,0,7.812,3.5,7.812,7.812
			C313.85,180.096,310.35,183.592,306.038,183.592z M222.654,449.22c0,4.312-3.5,7.812-7.812,7.812H97.654
			c-4.312,0-7.812-3.5-7.812-7.812V332.032c0-4.312,3.5-7.812,7.812-7.812h117.188c4.312,0,7.812,3.5,7.812,7.812V449.22z
			 M403.134,457.032H259.046c-4.312,0-7.812-3.5-7.812-7.812c0-4.316,3.5-7.812,7.812-7.812h144.088
			c4.316,0,7.812,3.496,7.812,7.812C410.946,453.532,407.45,457.032,403.134,457.032z M251.234,410.156
			c0-4.316,3.5-7.812,7.812-7.812H403.13c4.316,0,7.812,3.496,7.812,7.812c0,4.312-3.496,7.812-7.812,7.812H259.046
			C254.734,417.968,251.234,414.468,251.234,410.156z M403.134,378.908H259.046c-4.312,0-7.812-3.5-7.812-7.812
			c0-4.316,3.5-7.812,7.812-7.812h144.088c4.316,0,7.812,3.496,7.812,7.812C410.946,375.408,407.45,378.908,403.134,378.908z
			 M403.134,339.844H259.046c-4.312,0-7.812-3.5-7.812-7.812c0-4.316,3.5-7.812,7.812-7.812h144.088
			c4.316,0,7.812,3.496,7.812,7.812C410.946,336.344,407.45,339.844,403.134,339.844z M403.458,300.78h-62.436
			c-4.316,0-7.812-3.496-7.812-7.812c0-4.312,3.496-7.812,7.812-7.812h62.436c4.316,0,7.812,3.5,7.812,7.812
			C411.27,297.284,407.774,300.78,403.458,300.78z M403.458,261.72h-62.436c-4.316,0-7.812-3.496-7.812-7.812
			c0-4.312,3.496-7.812,7.812-7.812h62.436c4.316,0,7.812,3.5,7.812,7.812C411.27,258.224,407.774,261.72,403.458,261.72z
			 M403.458,222.656h-62.436c-4.316,0-7.812-3.496-7.812-7.812c0-4.312,3.496-7.812,7.812-7.812h62.436
			c4.316,0,7.812,3.5,7.812,7.812C411.27,219.16,407.774,222.656,403.458,222.656z M403.458,183.592h-62.436
			c-4.316,0-7.812-3.496-7.812-7.812c0-4.312,3.496-7.812,7.812-7.812h62.436c4.316,0,7.812,3.5,7.812,7.812
			C411.27,180.096,407.774,183.592,403.458,183.592z"/>
	</g>
</g>
<g>
</g>
<g>
</g>
<g>
</g>
<g>
</g>
<g>
</g>
<g>
</g>
<g>
</g>
<g>
</g>
<g>
</g>
<g>
</g>
<g>
</g>
<g>
</g>
<g>
</g>
<g>
</g>
<g>
</g>
</svg>
