<?xml version="1.0" encoding="utf-8"?>
<!-- Svg Vector Icons : http://www.onlinewebfonts.com/icon -->
<!DOCTYPE svg PUBLIC "-//W3C//DTD SVG 1.1//EN" "http://www.w3.org/Graphics/SVG/1.1/DTD/svg11.dtd">
<svg version="1.1"
xmlns="http://www.w3.org/2000/svg" xmlns:xlink="http://www.w3.org/1999/xlink"
x="0px"
y="0px"
viewBox="0 0 1000 1000"
enable-background="new 0 0 1000 1000"
xml:space="preserve">
  <defs>
      <linearGradient id="Gradient1">
        <stop class="stop1" offset="0%"/>
        <stop class="stop2" offset="50%"/>
      </linearGradient>
    <linearGradient id="Gradient2" x1="0.1" x2="" y1="0.7" y2="1">
        <stop offset="0%" stop-color="hotpink"/>
      <stop offset="500%" stop-color="turquoise"/>
      </linearGradient>
    <style type="text/css"><![CDATA[
        #rect1 { fill: url(#Gradient1); }
        .stop1 { stop-color: lightpink; }
        .stop2 { stop-color: turquoise; }
      ]]></style>
  </defs>
  <g>
    <g fill="url(#Gradient2)" transform="translate(0.000000,410.000000) scale(0.100000,-0.100000)">
      <path d="M4487.5,3167.6c-1055.4-108.1-2090-590.9-2869.5-1342.8C583.3,829.2,56.8-462.9,102.8-1888.5c25.3-756.5,167.9-1333.6,498.9-2011.9c181.6-374.8,439.2-772.6,620.8-958.8l128.8-133.4h3625.9c3173,0,3637.5,4.6,3695,34.5c87.4,46,393.2,455.3,574.8,772.5c917.4,1602.6,864.5,3598.4-135.7,5129.7c-213.8,328.8-409.3,565.6-680.6,834.6C7393.8,2804.3,5942.9,3314.8,4487.5,3167.6z M5549.8,2468.6c1552-204.6,2853.4-1250.8,3407.5-2729.2c218.4-588.6,308.1-1287.6,241.4-1899.2c-73.6-687.5-319.6-1370.4-701.3-1940.6L8348-4325.7H5002.5H1659.4l-101.2,137.9C1316.8-3859,1093.8-3401.4,960.4-2960c-269,885.2-234.5,1887.7,89.7,2733.8c117.3,298.9,333.4,705.9,512.7,958.8c200,282.8,710.5,793.2,993.3,993.3c239.1,167.8,646.1,388.6,924.3,498.9c220.7,87.4,639.2,197.7,869.1,229.9c94.3,13.8,197.7,29.9,229.9,34.5C4728.9,2510,5329,2498.5,5549.8,2468.6z"/><path d="M4908.3,2034.1c-62.1-52.9-64.4-66.7-71.3-278.2c-11.5-264.4,16.1-347.2,126.5-393.2c64.4-27.6,87.4-27.6,154,0c43.7,18.4,89.7,52.9,103.5,78.2c13.8,27.6,25.3,151.8,25.3,280.5c0,227.6-2.3,234.5-66.7,301.2C5094.5,2105.3,4997.9,2109.9,4908.3,2034.1z"/><path d="M2241.1,907.4c-50.6-43.7-64.4-73.6-64.4-149.5c0-87.4,13.8-108.1,186.2-280.5c163.3-163.3,197.7-186.2,271.3-188.5c117.3-2.3,206.9,87.4,204.6,206.9c-2.3,75.9-25.3,105.8-197.7,275.9C2422.7,985.6,2358.4,1008.6,2241.1,907.4z"/><path d="M7603,939.6c-25.3-9.2-124.2-96.6-216.1-193.1c-147.1-149.5-172.4-183.9-172.4-252.9c0-138,135.7-241.4,257.5-195.4c85.1,32.2,347.2,289.7,386.3,381.7c41.4,94.3,4.6,202.3-85.1,248.3C7701.9,967.2,7669.7,969.5,7603,939.6z"/><path d="M2822.8-394c-202.3-62.1-310.4-338-200-519.6c23-39.1,439.2-551.8,924.3-1138.1c485.2-588.6,922-1117.4,970.3-1174.9c236.8-294.3,680.6-319.6,947.3-52.9c190.8,193.1,239.1,485.1,117.3,731.2c-55.2,112.7-110.4,170.2-388.6,402.4c-179.4,149.5-712.8,590.9-1184.1,981.8c-471.4,393.2-894.4,731.1-942.7,751.9C2972.3-368.7,2924-364.1,2822.8-394z"/><path d="M1530.6-1585c-186.2-4.6-216.1-11.5-262.1-62.1c-73.6-78.2-69-211.5,11.5-280.5c55.2-48.3,82.8-52.9,319.6-52.9c246,0,262.1,2.3,312.7,57.5c73.6,78.2,73.6,197.7,2.3,273.6C1852.5-1585,1806.5-1575.8,1530.6-1585z"/><path d="M8143.3-1596.5c-140.2-36.8-186.2-223-80.5-326.5c52.9-55.2,69-57.5,328.8-57.5c262.1,0,273.6,2.3,326.5,57.5c73.6,78.2,73.6,197.7,2.3,273.6c-48.3,52.9-73.6,57.5-280.5,64.4C8313.5-1580.4,8180.1-1585,8143.3-1596.5z"/>
    </g>
  </g>
</svg>
