<svg width="24" height="24" xmlns="http://www.w3.org/2000/svg" version="1.1">
 <g>
  <path id="svg_1" d="m22,21l-20,0l0,-18l2,0l0,16l2,0l0,-2l4,0l0,2l2,0l0,-3l4,0l0,3l2,0l0,-2l4,0l0,4m-4,-7l4,0l0,2l-4,0l0,-2m-6,-8l4,0l0,3l-4,0l0,-3m4,9l-4,0l0,-5l4,0l0,5m-10,-5l4,0l0,2l-4,0l0,-2m4,6l-4,0l0,-3l4,0l0,3z" fill="#000000"/>
  <line stroke-linecap="undefined" stroke-linejoin="undefined" id="svg_2" y2="8.9376" x2="10.12506" y1="13.81244" x1="3.1253" stroke="#000" fill="none"/>
  <line stroke-linecap="undefined" stroke-linejoin="undefined" id="svg_3" y2="8.81261" x2="9.75008" y1="11.81251" x1="18.24978" stroke="#000" fill="none"/>
  <line stroke-linecap="undefined" stroke-linejoin="undefined" id="svg_4" y2="11.56251" x2="17.8748" y1="4.43776" x1="21.87466" stroke="#000" fill="none"/>
 </g>
</svg>