<svg id="icons" enable-background="new 0 0 64 64" height="512" viewBox="0 0 64 64" width="512" xmlns="http://www.w3.org/2000/svg"><path d="m61 3.998h-58c-1.654 0-3 1.346-3 3v52.004c0 .553.447 1 1 1h62c.553 0 1-.447 1-1v-52.004c0-1.654-1.346-3-3-3zm-59 6h60v48.004h-60zm1-4h1.02c-.552 0-.994.447-.994 1s.452 1 1.005 1c.552 0 1-.447 1-1s-.448-1-1-1h2.988c-.552 0-.994.447-.994 1s.452 1 1.005 1c.552 0 1-.447 1-1s-.448-1-1-1h2.992c-.552 0-.994.447-.994 1s.452 1 1.005 1c.552 0 1-.447 1-1s-.448-1-1-1h50.967c.552 0 1 .448 1 1v1h-51.968-3.003-2.999-2.03v-1c0-.552.448-1 1-1z"/><path d="m58.999 12.001h-35.985c-.553 0-1 .447-1 1v4.999h-17.013c-.553 0-1 .447-1 1v35.999c0 .553.447 1 1 1h53.998c.553 0 1-.447 1-1v-41.998c0-.553-.447-1-1-1zm-34.985 35.999v-4h16.014v4zm16.013 2v3.999h-16.013v-3.999zm-18.013-14h-16.013v-4h16.013zm2-4h16.014v4h-16.014zm-2 6v4h-16.013v-4zm2 0h16.014v4h-16.014zm18.013 0h15.972v4h-15.972zm0-2v-4h15.972v4zm0-6v-4h15.972v4zm0-6v-4h15.972v4zm-2 0h-16.013v-4h16.014v4zm0 2v4h-16.013v-4zm-18.013 4h-16.013v-4h16.013zm-16.013 14h16.013v4h-16.013zm36.026 0h15.972v4h-15.972zm15.972-26h-15.972v-3.999h15.972zm-33.985-3.999h16.014v3.999h-16.014zm-2 9.999h-16.013v-4h16.013zm-16.013 26h16.013v3.999h-16.013zm36.026 3.999v-3.999h15.972v3.999z"/><path d="m35.998 15h-7.996c-.553 0-1 .447-1 1s.447 1 1 1h7.996c.553 0 1-.447 1-1s-.447-1-1-1z"/><path d="m10.001 23h7.996c.553 0 1-.447 1-1s-.447-1-1-1h-7.996c-.553 0-1 .447-1 1s.447 1 1 1z"/><path d="m31 23h2c.553 0 1-.447 1-1s-.447-1-1-1h-2c-.553 0-1 .447-1 1s.447 1 1 1z"/><path d="m31 29h2c.553 0 1-.447 1-1s-.447-1-1-1h-2c-.553 0-1 .447-1 1s.447 1 1 1z"/><path d="m33 33h-2c-.553 0-1 .447-1 1s.447 1 1 1h2c.553 0 1-.447 1-1s-.447-1-1-1z"/><path d="m33 39h-2c-.553 0-1 .447-1 1s.447 1 1 1h2c.553 0 1-.447 1-1s-.447-1-1-1z"/><path d="m33 45h-2c-.553 0-1 .447-1 1s.447 1 1 1h2c.553 0 1-.447 1-1s-.447-1-1-1z"/><path d="m31 53h2c.553 0 1-.447 1-1s-.447-1-1-1h-2c-.553 0-1 .447-1 1s.447 1 1 1z"/><path d="m51 21h-2c-.553 0-1 .447-1 1s.447 1 1 1h2c.553 0 1-.447 1-1s-.447-1-1-1z"/><path d="m51 27h-2c-.553 0-1 .447-1 1s.447 1 1 1h2c.553 0 1-.447 1-1s-.447-1-1-1z"/><path d="m51 33h-2c-.553 0-1 .447-1 1s.447 1 1 1h2c.553 0 1-.447 1-1s-.447-1-1-1z"/><path d="m51 39h-2c-.553 0-1 .447-1 1s.447 1 1 1h2c.553 0 1-.447 1-1s-.447-1-1-1z"/><path d="m51 45h-2c-.553 0-1 .447-1 1s.447 1 1 1h2c.553 0 1-.447 1-1s-.447-1-1-1z"/><path d="m51 51h-2c-.553 0-1 .447-1 1s.447 1 1 1h2c.553 0 1-.447 1-1s-.447-1-1-1z"/><path d="m10.001 29h7.996c.553 0 1-.447 1-1s-.447-1-1-1h-7.996c-.553 0-1 .447-1 1s.447 1 1 1z"/><path d="m10.001 35h7.996c.553 0 1-.447 1-1s-.447-1-1-1h-7.996c-.553 0-1 .447-1 1s.447 1 1 1z"/><path d="m10.001 41h7.996c.553 0 1-.447 1-1s-.447-1-1-1h-7.996c-.553 0-1 .447-1 1s.447 1 1 1z"/><path d="m17.997 45h-7.996c-.553 0-1 .447-1 1s.447 1 1 1h7.996c.553 0 1-.447 1-1s-.447-1-1-1z"/><path d="m17.997 51h-7.996c-.553 0-1 .447-1 1s.447 1 1 1h7.996c.553 0 1-.447 1-1s-.447-1-1-1z"/><path d="m46.001 17h7.996c.553 0 1-.447 1-1s-.447-1-1-1h-7.996c-.553 0-1 .447-1 1s.447 1 1 1z"/></svg>