<svg data-name="Layer 1" xmlns="http://www.w3.org/2000/svg" viewBox="0 0 57 57"><defs><style>.cls-1{fill:#fff;}.cls-2{fill:#274247;}</style></defs><rect class="cls-1" x="38" y="32" width="11" height="24" transform="translate(87 88) rotate(-180)"/><rect class="cls-1" x="23" y="19" width="11" height="37" transform="translate(57 75) rotate(-180)"/><rect class="cls-1" x="7" y="49" width="11" height="7" transform="translate(25 105) rotate(-180)"/><path class="cls-2" d="M56.5,56H50V32h0V16H37V56H35V19h0V0H22V56H19V49h0V37H6V56H.5a.5.5,0,0,0,0,1h56a.5.5,0,0,0,0-1ZM7,56V49H18v7Zm16,0V19H34V56Zm15,0V32H49V56Z"/></svg>