<svg xmlns="http://www.w3.org/2000/svg" viewBox="0 0 320 320"><path d="M135.92,206H276.49a124.45,124.45,0,0,0,7.13-24.57,28.94,28.94,0,0,1-2.9-57.22,125.14,125.14,0,0,0-46-65.91,29.55,29.55,0,0,1-7.21.9,29.16,29.16,0,0,1-27.25-18.79A124.91,124.91,0,0,0,159,34c-67.42.86-122.42,55.78-123.36,123.2a125.06,125.06,0,0,0,141.9,125.65A91.68,91.68,0,0,1,135.92,206Z" fill="#f0f8f9"/><path d="M276.49,206a125.13,125.13,0,0,1-98.94,76.86A91.76,91.76,0,0,0,319.45,206Z" fill="#def6dd"/><path d="M276.49,206H135.92a91.68,91.68,0,0,0,41.63,76.86A125.13,125.13,0,0,0,276.49,206Z" fill="#d5eee2"/><path d="M286.27,123.54a29,29,0,0,0-5.55.54,125.88,125.88,0,0,1,2.9,57.22c.87.08,1.76.13,2.65.13a28.95,28.95,0,0,0,0-57.89Z" fill="#def6dd"/><path d="M280.72,124.08a28.94,28.94,0,0,0,2.9,57.22,125.88,125.88,0,0,0-2.9-57.22Z" fill="#d5eee2"/><path d="M256.63,29.91a29.16,29.16,0,1,0-56.4,10.37,124.38,124.38,0,0,1,34.46,17.89A29.17,29.17,0,0,0,256.63,29.91Z" fill="#def6dd"/><path d="M227.48,59.07a29.55,29.55,0,0,0,7.21-.9,124.38,124.38,0,0,0-34.46-17.89A29.16,29.16,0,0,0,227.48,59.07Z" fill="#d5eee2"/><line x1="3" y1="270" x2="97" y2="270" fill="none" stroke="#274247" stroke-linecap="round" stroke-miterlimit="10" stroke-width="2"/><line x1="33" y1="319" x2="285" y2="319" fill="none" stroke="#274247" stroke-linecap="round" stroke-miterlimit="10" stroke-width="2"/><path d="M59.63,270c14,0,37.22-76.67,37.22-76.67l4.57-27.2-13.1,7.05L67.76,184.26,36.63,255a58,58,0,0,0-26,15Z" fill="#fff" stroke="#274247" stroke-miterlimit="10" stroke-width="2"/><line x1="286" y1="206" x2="286.24" y2="152" fill="none" stroke="#274247" stroke-miterlimit="10" stroke-width="2"/><circle cx="286.24" cy="152.33" r="7.42" fill="#274247"/><path d="M286.1,184.68s-1-22.81-22.72-20.26" fill="#274247"/><line x1="228" y1="205" x2="228" y2="30" fill="none" stroke="#274247" stroke-miterlimit="10" stroke-width="2"/><circle cx="227.75" cy="29.69" r="7.89" fill="#274247"/><path d="M227.28,61.77S226.22,39,204.48,41.61" fill="#274247"/><path d="M227.28,132.74s-1.06-22.81-22.8-20.16" fill="#274247"/><path d="M227.63,131.3s-2-44.1,22.91-44.1" fill="none" stroke="#274247" stroke-miterlimit="10" stroke-width="2"/><circle cx="250.54" cy="87.2" r="7.42" fill="#274247"/><path d="M116.12,207.1c-8.57,6.56-37.94,64.42-43.6,69.34-5.86,5.1-37-23.54-34.89-36.57s42-95,75-89C112.63,150.87,116.43,206.87,116.12,207.1Z" fill="#b6e8b8" stroke="#274247" stroke-miterlimit="10" stroke-width="2"/><path d="M191.73,317c-3.12-24.16-8-74.22-.47-106.9a42.15,42.15,0,0,1,25.09-29.62c-34.83-22.18-118-30.78-117.72-30.64,0,0-14,19-14,59,0,37.07,8.22,68.34,36,102,11.37,4.62,20.88,4.79,33.63,6.39A143.56,143.56,0,0,0,191.73,317Z" fill="#1a9d49" stroke="#274247" stroke-miterlimit="10" stroke-width="2"/><path d="M125.35,134l5.28,38.9,10,15,33-11s-15.24-30.44-13.82-36S125.35,134,125.35,134Z" fill="#fff" stroke="#274247" stroke-miterlimit="10" stroke-width="2"/><circle cx="151" cy="102.47" r="46.7" transform="matrix(0.25, -0.97, 0.97, 0.25, 13.98, 222.99)" fill="#274247"/><circle cx="145.58" cy="122.05" r="30.36" fill="#fff" stroke="#274247" stroke-miterlimit="10" stroke-width="2"/><path d="M148.54,79.31c-18.3.22-33,9-32.89,19.72.06,4.78,3.09,9.11,8,12.42l6.32-4.7L128.38,114c.72.32,1.46.64,2.23.93L140,103.71l.17,13.65A55.57,55.57,0,0,0,149,118c18.29-.22,33-9,32.89-19.72S166.83,79.08,148.54,79.31Z" fill="#274247"/><path d="M154.39,140.74a27.44,27.44,0,0,1-20.89-2.42" fill="none" stroke="#274247" stroke-linecap="round" stroke-miterlimit="10" stroke-width="2"/><path d="M95.44,137.7c6.72,15.37,21.6,7.77,21.6,7.77s-4.47,17.24-26.73,19.88a47.26,47.26,0,1,1,5.13-27.65Z" fill="#fff" stroke="#274247" stroke-miterlimit="10" stroke-width="2"/><path d="M92.63,318.87s87.12-24.61,102-25c-2.69-11.92-3-45.15,1.26-40.1,0,0,12,2,26.84,3.06,3.44,11.23,19.9,56,.9,62Z" fill="#fff" stroke="#274247" stroke-miterlimit="10" stroke-width="2"/><path d="M229.16,197.24c-3.61-14.13-12.81-16.73-12.81-16.73h0s-16.91,3.73-25.72,25.36c-7.62,18.74-10.11,61.84-7,86,5,9,41.37,17.42,56.12,9.48C243.68,272.89,230.62,203,229.16,197.24Z" fill="#b6e8b8" stroke="#274247" stroke-miterlimit="10" stroke-width="2"/><text transform="translate(23.2 144.04)" font-size="32" fill="#274247" font-family="RobotoCondensed-Bold, Roboto Condensed" font-weight="700">404<tspan font-size="20" font-family="Roboto-Regular, Roboto" font-weight="400"><tspan x="10.78" y="24" letter-spacing="-0.01em">f</tspan><tspan x="17.48" y="24">eil</tspan></tspan></text></svg>