<svg data-name="Layer 1" xmlns="http://www.w3.org/2000/svg" viewBox="0 0 499.43 91.43"><defs><style>.cls-1{fill:#274247;}</style></defs><title>Artboard 1</title><path class="cls-1" d="M117.76,36.13l3.22-4a9.19,9.19,0,0,0,6.78,3.41c2.61,0,3.91-1.19,3.91-2.88,0-2-1.45-2.72-4.75-3.83-4.1-1.46-8.21-3.37-8.21-8.51,0-4.37,3.84-7.71,8.75-7.78A13.87,13.87,0,0,1,136.62,16l-3.11,4.06c-2.26-1.88-4.25-2.68-5.94-2.68-1.88,0-3.26,1-3.26,2.72s1.46,2.41,4.57,3.64c4.71,1.84,8.43,3.07,8.43,8.32,0,5.94-5.18,8.36-9.62,8.36A13.58,13.58,0,0,1,117.76,36.13Z"/><path class="cls-1" d="M142.17,34.22V25.55h-2.23V21.41h2.23V15.28l5-.54v6.67h5.1v4.14h-5.1v8c0,1.61.5,2.37,1.65,2.37a5.85,5.85,0,0,0,2.37-.65l1.31,4a9.35,9.35,0,0,1-5,1.15C144.27,40.43,142.17,38.43,142.17,34.22Z"/><path class="cls-1" d="M173.9,21.41V40.12h-4.75V37.86H169a6.74,6.74,0,0,1-5.6,2.57c-5.17,0-8.93-3.84-8.93-9.62s3.8-9.71,8.82-9.71a6.88,6.88,0,0,1,5.48,2.42h.12V21.41Zm-4.79,9.43c0-3-2-5.25-4.72-5.25s-4.83,2-4.83,5.25c0,3,2,5.1,4.79,5.1A4.8,4.8,0,0,0,169.11,30.84Z"/><path class="cls-1" d="M179.68,34.22V25.55h-2.23V21.41h2.23V15.28l5-.54v6.67h5.1v4.14h-5.1v8c0,1.61.5,2.37,1.65,2.37a5.94,5.94,0,0,0,2.38-.65l1.3,4a9.33,9.33,0,0,1-5,1.15C181.79,40.43,179.68,38.43,179.68,34.22Z"/><path class="cls-1" d="M193.51,15.7a3.13,3.13,0,1,1,3.1,3.07A3.11,3.11,0,0,1,193.51,15.7Zm.57,5.71h5V40.12h-5Z"/><path class="cls-1" d="M203.24,37.71l2.45-3.49a7.18,7.18,0,0,0,5.18,2.18c1.46,0,2.3-.61,2.3-1.53s-1-1.3-3.41-2.07c-3.07-1-5.75-2.49-5.75-6.1,0-3.37,2.91-5.6,6.74-5.6a10.46,10.46,0,0,1,6.83,2.34l-2.42,3.69a6.69,6.69,0,0,0-4.48-2c-.81,0-1.84.42-1.84,1.42,0,.77,1,1.3,2.83,2,4.07,1.5,6.44,2.38,6.44,6.06,0,3.34-2.37,5.83-7.28,5.83A11.38,11.38,0,0,1,203.24,37.71Z"/><path class="cls-1" d="M222.82,34.22V25.55H220.6V21.41h2.22V15.28l5-.54v6.67h5.1v4.14h-5.1v8c0,1.61.5,2.37,1.65,2.37a5.85,5.85,0,0,0,2.38-.65l1.3,4a9.31,9.31,0,0,1-5,1.15C224.93,40.43,222.82,38.43,222.82,34.22Z"/><path class="cls-1" d="M236.65,15.7a3.13,3.13,0,1,1,3.11,3.07A3.11,3.11,0,0,1,236.65,15.7Zm.58,5.71h5V40.12h-5Z"/><path class="cls-1" d="M246.38,37.71l2.46-3.49A7.14,7.14,0,0,0,254,36.4c1.46,0,2.3-.61,2.3-1.53s-.95-1.3-3.41-2.07c-3.06-1-5.75-2.49-5.75-6.1,0-3.37,2.91-5.6,6.75-5.6a10.42,10.42,0,0,1,6.82,2.34l-2.41,3.69a6.73,6.73,0,0,0-4.49-2c-.8,0-1.84.42-1.84,1.42,0,.77,1,1.3,2.84,2,4.06,1.5,6.44,2.38,6.44,6.06,0,3.34-2.38,5.83-7.29,5.83A11.38,11.38,0,0,1,246.38,37.71Z"/><path class="cls-1" d="M273.09,32.68l-2.6,3v4.48h-5V11.9h5V29h0l6.7-7.55h5.87l-6.59,7.44,6.7,11.27h-5.59l-4.45-7.44Z"/><path class="cls-1" d="M295.43,37.71l2.45-3.49a7.15,7.15,0,0,0,5.18,2.18c1.45,0,2.29-.61,2.29-1.53s-1-1.3-3.41-2.07c-3.06-1-5.75-2.49-5.75-6.1,0-3.37,2.92-5.6,6.75-5.6a10.42,10.42,0,0,1,6.82,2.34l-2.41,3.69a6.73,6.73,0,0,0-4.49-2c-.8,0-1.84.42-1.84,1.42,0,.77,1,1.3,2.84,2,4.07,1.5,6.44,2.38,6.44,6.06,0,3.34-2.37,5.83-7.28,5.83A11.38,11.38,0,0,1,295.43,37.71Z"/><path class="cls-1" d="M331.68,32.38H318.53a4.73,4.73,0,0,0,4.79,3.6,5.44,5.44,0,0,0,4.49-2.11l3.26,3A10,10,0,0,1,323,40.43a9.26,9.26,0,0,1-9.62-9.7c0-5.68,3.94-9.63,9.27-9.63,5.49,0,9.16,4,9.16,9.48A8.36,8.36,0,0,1,331.68,32.38Zm-13.11-3.61h8.24a4,4,0,0,0-4-3.26A4.14,4.14,0,0,0,318.57,28.77Z"/><path class="cls-1" d="M354.1,29V40.12h-5V30.27c0-3.57-1.27-4.68-3.61-4.68-2.53,0-4.25,1.76-4.25,5.1v9.43h-5V21.41h5v2.42h.07a7.74,7.74,0,0,1,6-2.73C351.3,21.1,354.1,23.25,354.1,29Z"/><path class="cls-1" d="M359.76,34.22V25.55h-2.23V21.41h2.23V15.28l5-.54v6.67h5.1v4.14h-5.1v8c0,1.61.5,2.37,1.65,2.37a5.89,5.89,0,0,0,2.38-.65l1.3,4a9.33,9.33,0,0,1-5,1.15C361.87,40.43,359.76,38.43,359.76,34.22Z"/><path class="cls-1" d="M385.05,21.14v5.45c-.5,0-1,0-1.3,0A4.52,4.52,0,0,0,379,31.42v8.7h-5V21.41h5v2.76h0a6.9,6.9,0,0,1,5.68-3.07A1,1,0,0,1,385.05,21.14Z"/><path class="cls-1" d="M406.63,21.41V40.12h-4.75V37.86h-.12a6.74,6.74,0,0,1-5.6,2.57c-5.17,0-8.93-3.84-8.93-9.62s3.79-9.71,8.82-9.71a6.88,6.88,0,0,1,5.48,2.42h.11V21.41Zm-4.79,9.43c0-3-2-5.25-4.72-5.25s-4.83,2-4.83,5.25c0,3,2,5.1,4.8,5.1A4.79,4.79,0,0,0,401.84,30.84Z"/><path class="cls-1" d="M412.14,11.9h5V40.12h-5Z"/><path class="cls-1" d="M442.42,30.81c0,5.78-3.76,9.62-9,9.62a6.94,6.94,0,0,1-5.72-2.57h-.11v2.26h-4.79V11.9h5V23.52H428a7.16,7.16,0,0,1,5.64-2.42C438.62,21.1,442.42,25.13,442.42,30.81Zm-5.1,0c0-3.22-2.11-5.25-4.79-5.25a4.93,4.93,0,0,0-4.91,5.25,4.84,4.84,0,0,0,4.91,5.1C435.36,35.94,437.32,33.87,437.32,30.84Z"/><path class="cls-1" d="M463.15,21.41l-10.09,26.3h-5.13l3.3-8.74-7.44-17.56H449L453.6,33h0l4.29-11.58Z"/><path class="cls-1" d="M477.82,21.14v5.45c-.5,0-1,0-1.31,0a4.53,4.53,0,0,0-4.79,4.87v8.7h-5V21.41h5v2.76h0a6.9,6.9,0,0,1,5.67-3.07A1.06,1.06,0,0,1,477.82,21.14Z"/><path class="cls-1" d="M499.39,21.41V40.12h-4.75V37.86h-.12a6.73,6.73,0,0,1-5.59,2.57c-5.18,0-8.94-3.84-8.94-9.62s3.8-9.71,8.82-9.71a6.88,6.88,0,0,1,5.48,2.42h.12V21.41Zm-4.79,9.43c0-3-2-5.25-4.71-5.25s-4.84,2-4.84,5.25a4.74,4.74,0,0,0,4.8,5.1A4.79,4.79,0,0,0,494.6,30.84ZM485.93,15.7a4.15,4.15,0,0,1,8.29,0,4.15,4.15,0,0,1-8.29,0Zm2.69,0A1.39,1.39,0,0,0,490,17.08a1.44,1.44,0,1,0,0-2.87A1.44,1.44,0,0,0,488.62,15.66Z"/><path class="cls-1" d="M118.51,77.54l1.61-1.89a7.4,7.4,0,0,0,5.65,2.69c2.5,0,4.17-1.17,4.17-3.12,0-2.3-1.84-2.91-4.57-3.94-3-1.12-6.09-2.41-6.09-5.94,0-3.05,2.76-5.37,6.23-5.4A10.38,10.38,0,0,1,132,62.32l-1.52,2a8,8,0,0,0-4.94-2c-1.89,0-3.62,1-3.62,2.95s1.81,2.64,4.34,3.65c3.45,1.32,6.32,2.27,6.32,6.09s-3.3,5.74-6.81,5.74A9.83,9.83,0,0,1,118.51,77.54Z"/><path class="cls-1" d="M136.83,76.36V68.55h-1.78v-2h1.78V61.78l2.32-.26v5h4.66v2h-4.66V76c0,1.66.41,2.5,1.72,2.5a5.07,5.07,0,0,0,2.36-.72l.63,2a6.43,6.43,0,0,1-3.39.86C138,80.7,136.83,79.18,136.83,76.36Z"/><path class="cls-1" d="M160,66.54v14h-2.24V78.32h0a6,6,0,0,1-4.88,2.38A6.69,6.69,0,0,1,146,73.64c0-4.14,2.87-7.27,6.83-7.27a6.06,6.06,0,0,1,4.83,2.27h0v-2.1Zm-2.24,7.1a4.8,4.8,0,0,0-4.68-5.11c-2.64,0-4.74,2-4.74,5.11A4.63,4.63,0,0,0,153,78.57,4.73,4.73,0,0,0,157.73,73.64Z"/><path class="cls-1" d="M165,76.36V68.55h-1.78v-2H165V61.78l2.32-.26v5H172v2h-4.65V76c0,1.66.4,2.5,1.72,2.5a5.07,5.07,0,0,0,2.36-.72l.63,2a6.46,6.46,0,0,1-3.39.86C166.14,80.7,165,79.18,165,76.36Z"/><path class="cls-1" d="M175.1,62.32A1.67,1.67,0,1,1,176.77,64,1.64,1.64,0,0,1,175.1,62.32Zm.49,4.22h2.32v14h-2.32Z"/><path class="cls-1" d="M181.79,78.69,183,76.94a5.81,5.81,0,0,0,4.28,1.66c1.66,0,2.64-.86,2.64-1.86,0-1.21-1.29-1.61-3.33-2.3-2.27-.8-4.19-1.75-4.19-4.31,0-2.15,1.95-3.76,4.62-3.76a7.27,7.27,0,0,1,4.79,1.72l-1.2,1.84a5.59,5.59,0,0,0-3.71-1.43c-1.06,0-2.15.63-2.15,1.63s1.15,1.61,2.64,2.18c3,1.15,4.91,1.64,4.88,4.4,0,2.18-1.63,4-5,4A8,8,0,0,1,181.79,78.69Z"/><path class="cls-1" d="M196.41,76.36V68.55h-1.78v-2h1.78V61.78l2.32-.26v5h4.66v2h-4.66V76c0,1.66.41,2.5,1.73,2.5a5.06,5.06,0,0,0,2.35-.72l.63,2a6.43,6.43,0,0,1-3.39.86C197.56,80.7,196.41,79.18,196.41,76.36Z"/><path class="cls-1" d="M206.52,62.32a1.63,1.63,0,0,1,1.66-1.63,1.64,1.64,0,1,1,0,3.27A1.62,1.62,0,0,1,206.52,62.32Zm.48,4.22h2.33v14H207Z"/><path class="cls-1" d="M213.55,73.55a6.8,6.8,0,0,1,7-7.18,7.41,7.41,0,0,1,5.63,2.5l-1.61,1.41a4.91,4.91,0,0,0-3.91-1.75,5,5,0,0,0,0,10,5.46,5.46,0,0,0,4-1.66l1.6,1.43a7.78,7.78,0,0,1-5.77,2.36C216.45,80.7,213.55,77.8,213.55,73.55Z"/><path class="cls-1" d="M228.63,78.69l1.2-1.75a5.81,5.81,0,0,0,4.28,1.66c1.66,0,2.64-.86,2.64-1.86,0-1.21-1.29-1.61-3.33-2.3-2.27-.8-4.19-1.75-4.19-4.31,0-2.15,2-3.76,4.62-3.76a7.28,7.28,0,0,1,4.8,1.72l-1.21,1.84a5.57,5.57,0,0,0-3.7-1.43c-1.07,0-2.16.63-2.16,1.63s1.15,1.61,2.64,2.18c3,1.15,4.91,1.64,4.89,4.4,0,2.18-1.64,4-5,4A8,8,0,0,1,228.63,78.69Z"/><path class="cls-1" d="M268.16,60.14V80.53h-2.55L254.18,64.45h-.06V80.53h-2.5V60.14h2.47l11.52,16.25h.06V60.14Z"/><path class="cls-1" d="M272.53,73.55a7.21,7.21,0,1,1,7.24,7.15A7,7,0,0,1,272.53,73.55Zm12.06,0a4.86,4.86,0,1,0-4.82,5A4.77,4.77,0,0,0,284.59,73.55Z"/><path class="cls-1" d="M298.46,66.4V69c-.32,0-.69,0-.92,0-2.64,0-4.25,2-4.25,4.85v6.75H291v-14h2.33V69h0a5.3,5.3,0,0,1,4.56-2.64A3.27,3.27,0,0,1,298.46,66.4Z"/><path class="cls-1" d="M320.65,66.54l-4.85,14h-2.18l-3.16-10.2h0l-3.19,10.2h-2.12l-4.85-14h2.35L306.18,77h.06l3.19-10.45h2L314.68,77h.06l3.56-10.45Z"/><path class="cls-1" d="M336.38,66.54v14h-2.24V78.32h0a6,6,0,0,1-4.88,2.38,6.69,6.69,0,0,1-6.87-7.06c0-4.14,2.88-7.27,6.84-7.27A6.06,6.06,0,0,1,334,68.64h0v-2.1Zm-2.24,7.1a4.79,4.79,0,0,0-4.68-5.11c-2.64,0-4.73,2-4.73,5.11a4.62,4.62,0,0,0,4.71,4.93A4.73,4.73,0,0,0,334.14,73.64Z"/><path class="cls-1" d="M353.33,66.54l-7.9,19.67H343l2.5-6.26-5.91-13.41h2.5l4.53,10.66h.06l4.22-10.66Z"/><path class="cls-1" d="M50.14,53.47,88.92,31.08A45.63,45.63,0,0,0,1.17,55.77L44.12,31Z"/><path class="cls-1" d="M47.29,60.34l-6-22.46L2.43,60.27A45.63,45.63,0,0,0,90.18,35.58Z"/></svg>