<?xml version="1.0" encoding="UTF-8"?>
<svg xmlns="http://www.w3.org/2000/svg" viewBox="0 0 218 40.15">
  <defs>
    <style>
      .cls-1 {
        fill: #fff;
      }

      .cls-2 {
        fill: #00824d;
      }
    </style>
  </defs>
  <g id="banner">
    <path class="cls-2" d="M217.06,39.87h-57c-.44,0-.8-.36-.8-.8v-15.49c0-.44.36-.8.8-.8h57c.61,0,.99.65.7,1.18l-3.81,6.98c-.13.24-.13.53,0,.77l3.81,6.98c.29.53-.09,1.18-.7,1.18Z"/>
    <g id="_150_år" data-name="150 år">
      <path class="cls-1" d="M171.41,29.24l-1.44,1.07-.81-1.26,2.6-1.86h1.36v8.58h-1.71v-6.53Z"/>
      <path class="cls-1" d="M181.04,33c0,1.7-1.34,2.87-3.07,2.87-1.17,0-2.25-.45-2.96-1.35l1.22-.99c.35.46.9.79,1.65.79.82,0,1.44-.59,1.44-1.35,0-.9-.77-1.35-1.47-1.35-.45,0-.86.1-1.29.44l-.9-.34.26-4.54h4.68v1.55h-3.21l-.1,1.69c.4-.12.79-.19,1.07-.19,1.46,0,2.67,1.06,2.67,2.76Z"/>
      <path class="cls-1" d="M182.5,31.49c0-2.62,1.26-4.4,3.34-4.4s3.35,1.62,3.35,4.4c0,2.62-1.26,4.39-3.35,4.39-1.97,0-3.34-1.61-3.34-4.39ZM187.45,31.49c0-1.74-.59-2.81-1.6-2.81s-1.61.99-1.61,2.81c0,1.72.6,2.81,1.61,2.81s1.6-1,1.6-2.81Z"/>
      <path class="cls-1" d="M199.5,29.68v6.1h-1.55v-.74h-.04c-.41.54-1.04.84-1.82.84-1.69,0-2.91-1.25-2.91-3.14s1.24-3.16,2.87-3.16c.72,0,1.35.26,1.79.79h.04v-.69h1.62ZM197.94,32.75c0-.97-.65-1.71-1.54-1.71s-1.57.66-1.57,1.71c0,.99.65,1.66,1.56,1.66.85,0,1.55-.66,1.55-1.66ZM195.12,27.81c0-.71.56-1.31,1.34-1.31s1.36.55,1.36,1.31c0,.71-.55,1.3-1.36,1.3-.72,0-1.34-.55-1.34-1.3ZM195.99,27.8c0,.26.2.46.46.46s.47-.21.47-.47-.21-.46-.47-.46-.46.23-.46.47Z"/>
      <path class="cls-1" d="M205.25,29.59v1.77c-.16-.01-.34-.01-.42-.01-1.01,0-1.56.69-1.56,1.59v2.84h-1.64v-6.1h1.64v.9h.01c.46-.65,1.12-1,1.85-1,.05,0,.1,0,.13.01Z"/>
    </g>
  </g>
  <g id="SSB_logo_outline_white" data-name="SSB logo outline white">
    <g>
      <path class="cls-1" d="M51.48,15.97l1.4-1.74c.89,1.04,2.02,1.49,2.96,1.49,1.14,0,1.7-.52,1.7-1.25,0-.87-.64-1.19-2.07-1.67-1.79-.64-3.58-1.47-3.58-3.71,0-1.9,1.67-3.36,3.81-3.39,1.47-.02,2.84.53,3.99,1.5l-1.35,1.77c-.99-.82-1.85-1.17-2.59-1.17-.82,0-1.42.43-1.42,1.19-.02.73.63,1.05,1.99,1.59,2.06.8,3.68,1.34,3.68,3.63,0,2.59-2.26,3.64-4.19,3.64-1.54,0-3.09-.58-4.33-1.87Z"/>
      <path class="cls-1" d="M62.12,15.14v-3.78h-.97v-1.8h.97v-2.67l2.17-.23v2.91h2.22v1.8h-2.22v3.48c0,.7.22,1.04.72,1.04.27,0,.67-.1,1.04-.28l.57,1.75c-.53.28-1.07.5-2.17.5-1.4,0-2.32-.87-2.32-2.71Z"/>
      <path class="cls-1" d="M75.95,9.56v8.15h-2.07v-.99h-.05c-.55.72-1.39,1.12-2.44,1.12-2.26,0-3.89-1.67-3.89-4.19s1.65-4.23,3.84-4.23c.97,0,1.8.35,2.39,1.05h.05v-.92h2.17ZM73.86,13.67c0-1.3-.87-2.29-2.06-2.29s-2.11.89-2.11,2.29c0,1.32.87,2.22,2.09,2.22,1.14,0,2.07-.89,2.07-2.22Z"/>
      <path class="cls-1" d="M78.47,15.14v-3.78h-.97v-1.8h.97v-2.67l2.17-.23v2.91h2.22v1.8h-2.22v3.48c0,.7.22,1.04.72,1.04.27,0,.67-.1,1.04-.28l.57,1.75c-.53.28-1.07.5-2.17.5-1.4,0-2.32-.87-2.32-2.71Z"/>
      <path class="cls-1" d="M84.5,7.07c0-.74.62-1.34,1.35-1.34s1.37.6,1.37,1.34-.62,1.34-1.37,1.34-1.35-.6-1.35-1.34ZM84.75,9.56h2.19v8.15h-2.19v-8.15Z"/>
      <path class="cls-1" d="M88.74,16.66l1.07-1.52c.67.64,1.37.95,2.26.95.63,0,1-.27,1-.67s-.42-.57-1.49-.9c-1.34-.45-2.51-1.09-2.51-2.66,0-1.47,1.27-2.44,2.94-2.44,1.14,0,2.06.3,2.97,1.02l-1.05,1.6c-.63-.6-1.35-.87-1.96-.87-.35,0-.8.18-.8.62,0,.33.43.57,1.24.87,1.77.65,2.81,1.04,2.81,2.64,0,1.45-1.04,2.54-3.17,2.54-1.3,0-2.41-.42-3.31-1.19Z"/>
      <path class="cls-1" d="M97.28,15.14v-3.78h-.97v-1.8h.97v-2.67l2.17-.23v2.91h2.22v1.8h-2.22v3.48c0,.7.22,1.04.72,1.04.27,0,.67-.1,1.04-.28l.57,1.75c-.53.28-1.07.5-2.17.5-1.4,0-2.32-.87-2.32-2.71Z"/>
      <path class="cls-1" d="M103.31,7.07c0-.74.62-1.34,1.35-1.34s1.37.6,1.37,1.34-.62,1.34-1.37,1.34-1.35-.6-1.35-1.34ZM103.56,9.56h2.19v8.15h-2.19v-8.15Z"/>
      <path class="cls-1" d="M107.55,16.66l1.07-1.52c.67.64,1.37.95,2.26.95.63,0,1-.27,1-.67s-.42-.57-1.49-.9c-1.34-.45-2.51-1.09-2.51-2.66,0-1.47,1.27-2.44,2.94-2.44,1.14,0,2.06.3,2.97,1.02l-1.05,1.6c-.63-.6-1.35-.87-1.96-.87-.35,0-.8.18-.8.62,0,.33.43.57,1.24.87,1.77.65,2.81,1.04,2.81,2.64,0,1.45-1.04,2.54-3.17,2.54-1.3,0-2.41-.42-3.31-1.19Z"/>
      <path class="cls-1" d="M119.2,14.47l-1.14,1.29v1.96h-2.19V5.41h2.19v7.43h.02l2.92-3.29h2.56l-2.87,3.24,2.92,4.91h-2.44l-1.94-3.24h-.03Z"/>
      <path class="cls-1" d="M128.94,16.66l1.07-1.52c.67.64,1.37.95,2.26.95.63,0,1-.27,1-.67s-.42-.57-1.49-.9c-1.34-.45-2.51-1.09-2.51-2.66,0-1.47,1.27-2.44,2.94-2.44,1.14,0,2.06.3,2.97,1.02l-1.05,1.6c-.63-.6-1.35-.87-1.96-.87-.35,0-.8.18-.8.62,0,.33.43.57,1.24.87,1.77.65,2.81,1.04,2.81,2.64,0,1.45-1.04,2.54-3.17,2.54-1.3,0-2.41-.42-3.31-1.19Z"/>
      <path class="cls-1" d="M144.74,14.34h-5.73c.27.97,1.04,1.57,2.09,1.57.87.02,1.5-.37,1.96-.92l1.42,1.32c-.7.89-1.89,1.54-3.53,1.54-2.39,0-4.19-1.67-4.19-4.23s1.72-4.19,4.04-4.19,3.99,1.74,3.99,4.13c0,.27,0,.65-.05.79ZM139.03,12.77h3.59c-.22-.85-.8-1.42-1.75-1.42-.89,0-1.59.48-1.84,1.42Z"/>
      <path class="cls-1" d="M154.51,12.87v4.85h-2.19v-4.29c0-1.55-.55-2.04-1.57-2.04-1.1,0-1.85.77-1.85,2.22v4.11h-2.19v-8.15h2.19v1.05h.03c.67-.79,1.6-1.19,2.61-1.19,1.75,0,2.97.94,2.97,3.44Z"/>
      <path class="cls-1" d="M156.98,15.14v-3.78h-.97v-1.8h.97v-2.67l2.17-.23v2.91h2.22v1.8h-2.22v3.48c0,.7.22,1.04.72,1.04.27,0,.67-.1,1.04-.28l.57,1.75c-.53.28-1.07.5-2.17.5-1.4,0-2.32-.87-2.32-2.71Z"/>
      <path class="cls-1" d="M168.01,9.44v2.37c-.22-.02-.45-.02-.57-.02-1.35,0-2.09.92-2.09,2.12v3.79h-2.19v-8.15h2.19v1.2h.02c.62-.87,1.5-1.34,2.47-1.34.07,0,.13,0,.17.02Z"/>
      <path class="cls-1" d="M177.42,9.56v8.15h-2.07v-.99h-.05c-.55.72-1.39,1.12-2.44,1.12-2.26,0-3.89-1.67-3.89-4.19s1.65-4.23,3.84-4.23c.97,0,1.8.35,2.39,1.05h.05v-.92h2.17ZM175.33,13.67c0-1.3-.87-2.29-2.06-2.29s-2.1.89-2.1,2.29c0,1.32.87,2.22,2.09,2.22,1.14,0,2.07-.89,2.07-2.22Z"/>
      <path class="cls-1" d="M179.82,5.41h2.19v12.3h-2.19V5.41Z"/>
      <path class="cls-1" d="M193.02,13.65c0,2.52-1.64,4.19-3.91,4.19-1.09,0-1.92-.4-2.49-1.12h-.05v.99h-2.09V5.41h2.19v5.06h.05c.6-.7,1.45-1.05,2.46-1.05,2.19,0,3.84,1.75,3.84,4.23ZM190.8,13.67c0-1.4-.92-2.29-2.09-2.29-1.25,0-2.14.99-2.14,2.29s.95,2.22,2.14,2.22,2.09-.9,2.09-2.22Z"/>
      <path class="cls-1" d="M202.06,9.56l-4.39,11.46h-2.24l1.44-3.81-3.24-7.65h2.27l2,5.05h.02l1.87-5.05h2.27Z"/>
      <path class="cls-1" d="M208.45,9.44v2.37c-.22-.02-.45-.02-.57-.02-1.35,0-2.09.92-2.09,2.12v3.79h-2.19v-8.15h2.19v1.2h.02c.62-.87,1.5-1.34,2.47-1.34.07,0,.13,0,.17.02Z"/>
      <path class="cls-1" d="M217.86,9.56v8.15h-2.07v-.99h-.05c-.55.72-1.39,1.12-2.44,1.12-2.26,0-3.89-1.67-3.89-4.19s1.65-4.23,3.84-4.23c.97,0,1.8.35,2.39,1.05h.05v-.92h2.17ZM215.77,13.67c0-1.3-.87-2.29-2.06-2.29s-2.1.89-2.1,2.29c0,1.32.87,2.22,2.09,2.22,1.14,0,2.07-.89,2.07-2.22ZM211.99,7.07c0-.95.75-1.75,1.79-1.75s1.82.73,1.82,1.75c0,.95-.74,1.74-1.82,1.74-.97,0-1.79-.73-1.79-1.74ZM213.16,7.05c0,.35.27.62.62.62s.63-.28.63-.64-.28-.62-.63-.62-.62.3-.62.63Z"/>
    </g>
    <g>
      <path class="cls-1" d="M51.8,34.03l.7-.83c.64.79,1.6,1.18,2.47,1.18,1.09,0,1.81-.51,1.81-1.36,0-1-.8-1.26-1.99-1.71-1.31-.49-2.65-1.05-2.65-2.59,0-1.33,1.2-2.34,2.72-2.35.99,0,1.96.36,2.82,1.04l-.66.85c-.7-.59-1.49-.88-2.15-.88-.83,0-1.58.45-1.58,1.29-.01.85.79,1.15,1.89,1.59,1.5.58,2.75.99,2.75,2.65s-1.44,2.5-2.97,2.5c-1.11,0-2.26-.43-3.15-1.38Z"/>
      <path class="cls-1" d="M59.79,33.51v-3.4h-.78v-.88h.78v-2.08l1.01-.11v2.19h2.03v.88h-2.03v3.25c0,.73.17,1.09.75,1.09.36,0,.74-.15,1.03-.31l.28.89c-.34.19-.76.38-1.48.38-1.09,0-1.59-.66-1.59-1.89Z"/>
      <path class="cls-1" d="M69.88,29.23v6.09h-.98v-.96h-.01c-.49.65-1.24,1.04-2.13,1.04-1.69,0-2.99-1.21-2.99-3.08s1.25-3.17,2.98-3.17c.84,0,1.59.35,2.1.99h.01v-.91h1.01ZM68.9,32.32c0-1.25-.86-2.23-2.04-2.23s-2.06.88-2.06,2.23c0,1.23.81,2.15,2.05,2.15,1.1,0,2.05-.86,2.05-2.15Z"/>
      <path class="cls-1" d="M72.07,33.51v-3.4h-.78v-.88h.78v-2.08l1.01-.11v2.19h2.03v.88h-2.03v3.25c0,.73.18,1.09.75,1.09.36,0,.74-.15,1.03-.31l.28.89c-.34.19-.76.38-1.48.38-1.09,0-1.59-.66-1.59-1.89Z"/>
      <path class="cls-1" d="M76.48,27.39c0-.39.31-.71.73-.71s.73.33.73.71-.33.71-.73.71-.73-.31-.73-.71ZM76.69,29.23h1.01v6.09h-1.01v-6.09Z"/>
      <path class="cls-1" d="M79.39,34.53l.53-.76c.47.44,1,.73,1.86.73.73,0,1.15-.38,1.15-.81,0-.53-.56-.7-1.45-1-.99-.35-1.83-.76-1.83-1.88,0-.94.85-1.64,2.01-1.64.73,0,1.41.2,2.09.75l-.53.8c-.54-.46-1.1-.63-1.61-.63-.46,0-.94.28-.94.71,0,.48.5.7,1.15.95,1.29.5,2.14.71,2.13,1.91,0,.95-.71,1.74-2.18,1.74-1,0-1.79-.34-2.39-.88Z"/>
      <path class="cls-1" d="M85.77,33.51v-3.4h-.78v-.88h.78v-2.08l1.01-.11v2.19h2.03v.88h-2.03v3.25c0,.73.18,1.09.75,1.09.36,0,.74-.15,1.03-.31l.28.89c-.34.19-.76.38-1.48.38-1.09,0-1.59-.66-1.59-1.89Z"/>
      <path class="cls-1" d="M90.17,27.39c0-.39.31-.71.73-.71s.73.33.73.71-.33.71-.73.71-.73-.31-.73-.71ZM90.38,29.23h1.01v6.09h-1.01v-6.09Z"/>
      <path class="cls-1" d="M93.24,32.29c0-1.84,1.26-3.13,3.05-3.13.91,0,1.85.38,2.45,1.09l-.7.61c-.37-.46-.98-.76-1.7-.76-1.23,0-2.08.9-2.08,2.19s.85,2.19,2.08,2.19c.71,0,1.35-.31,1.73-.73l.7.63c-.51.58-1.43,1.03-2.51,1.03-1.75,0-3.02-1.26-3.02-3.12Z"/>
      <path class="cls-1" d="M99.81,34.53l.53-.76c.47.44,1,.73,1.86.73.73,0,1.15-.38,1.15-.81,0-.53-.56-.7-1.45-1-.99-.35-1.83-.76-1.83-1.88,0-.94.85-1.64,2.01-1.64.73,0,1.41.2,2.09.75l-.53.8c-.54-.46-1.1-.63-1.61-.63-.46,0-.94.28-.94.71,0,.48.5.7,1.15.95,1.29.5,2.14.71,2.13,1.91,0,.95-.71,1.74-2.18,1.74-1,0-1.79-.34-2.39-.88Z"/>
      <path class="cls-1" d="M117.05,26.44v8.88h-1.11l-4.98-7.01h-.02v7.01h-1.09v-8.88h1.08l5.02,7.08h.02v-7.08h1.09Z"/>
      <path class="cls-1" d="M118.95,32.29c0-1.75,1.25-3.13,3.15-3.13,1.79,0,3.13,1.28,3.13,3.13s-1.34,3.12-3.13,3.12c-1.9,0-3.15-1.36-3.15-3.12ZM124.21,32.29c0-1.3-.93-2.19-2.1-2.19-1.28,0-2.13.98-2.13,2.19s.86,2.19,2.13,2.19c1.18,0,2.1-.9,2.1-2.19Z"/>
      <path class="cls-1" d="M130.25,29.17v1.13c-.14-.01-.3-.02-.4-.02-1.15,0-1.85.89-1.85,2.11v2.94h-1.01v-6.09h1.01v1.08h.01c.45-.73,1.16-1.15,1.99-1.15.1,0,.19,0,.25.01Z"/>
      <path class="cls-1" d="M139.93,29.23l-2.11,6.09h-.95l-1.38-4.44h-.01l-1.39,4.44h-.93l-2.11-6.09h1.03l1.55,4.55h.03l1.39-4.55h.88l1.41,4.55h.03l1.55-4.55h1.03Z"/>
      <path class="cls-1" d="M146.79,29.23v6.09h-.98v-.96h-.01c-.49.65-1.24,1.04-2.13,1.04-1.69,0-2.99-1.21-2.99-3.08s1.25-3.17,2.98-3.17c.84,0,1.59.35,2.1.99h.01v-.91h1.01ZM145.81,32.32c0-1.25-.86-2.23-2.04-2.23s-2.06.88-2.06,2.23c0,1.23.81,2.15,2.05,2.15,1.1,0,2.05-.86,2.05-2.15Z"/>
      <path class="cls-1" d="M154.18,29.23l-3.44,8.57h-1.08l1.09-2.73-2.58-5.84h1.09l1.98,4.64h.02l1.84-4.64h1.08Z"/>
    </g>
    <g>
      <path class="cls-1" d="M22,23.53l16.91-9.76C36.25,5.9,28.82.22,20.05.22,9.05.22.14,9.13.14,20.13c0,1.51.18,2.98.5,4.4l18.73-10.8,2.62,9.79Z"/>
      <path class="cls-1" d="M20.75,26.53l-2.62-9.79L1.2,26.49c2.66,7.87,10.08,13.55,18.85,13.55,11,0,19.91-8.91,19.91-19.91,0-1.51-.18-2.98-.5-4.4l-18.7,10.8Z"/>
    </g>
  </g>
</svg>