<svg xmlns="http://www.w3.org/2000/svg" xmlns:xlink="http://www.w3.org/1999/xlink" width="219" height="40" viewBox="0 0 219 40">
    <defs>
        <path id="a" d="M.093.126h154.543v37.637H.093z"/>
    </defs>
    <g fill="none" fill-rule="evenodd">
        <path fill="#FFF" d="M51.534 15.9l1.41-1.742c.888 1.039 2.03 1.491 2.969 1.491 1.141 0 1.712-.52 1.712-1.257 0-.869-.637-1.187-2.08-1.674-1.796-.635-3.591-1.472-3.591-3.715 0-1.908 1.676-3.365 3.825-3.397 1.477-.017 2.853.536 4.011 1.506l-1.36 1.774c-.99-.82-1.862-1.172-2.6-1.172-.822 0-1.427.437-1.427 1.19-.017.736.637 1.053 1.997 1.59 2.064.803 3.69 1.338 3.69 3.63 0 2.596-2.263 3.65-4.211 3.65-1.544 0-3.103-.586-4.345-1.874M62.216 15.063V11.28h-.973V9.472h.973V6.794l2.182-.234v2.912h2.232v1.808h-2.232v3.482c0 .703.218 1.036.722 1.036.267 0 .671-.1 1.04-.284l.57 1.758c-.536.285-1.073.502-2.18.502-1.41 0-2.334-.87-2.334-2.71M74.008 13.59c0-1.305-.871-2.293-2.063-2.293-1.174 0-2.115.886-2.115 2.292 0 1.323.873 2.226 2.098 2.226 1.14 0 2.08-.887 2.08-2.226zm2.098-4.118v8.168h-2.08v-.988h-.05c-.555.72-1.394 1.122-2.45 1.122-2.265 0-3.91-1.674-3.91-4.2 0-2.479 1.66-4.236 3.86-4.236.973 0 1.812.351 2.398 1.054h.05v-.92h2.182zM78.633 15.063V11.28h-.973V9.472h.973V6.794l2.183-.234v2.912h2.231v1.808h-2.231v3.482c0 .703.217 1.036.721 1.036.267 0 .671-.1 1.04-.284l.57 1.758c-.536.285-1.073.502-2.18.502-1.41 0-2.334-.87-2.334-2.71M84.94 17.64h2.197V9.472H84.94v8.168zm-.252-10.662c0-.736.62-1.34 1.359-1.34.754 0 1.376.604 1.376 1.34 0 .736-.622 1.339-1.376 1.339-.739 0-1.359-.603-1.359-1.339zM88.946 16.585l1.074-1.522c.672.635 1.375.954 2.265.954.637 0 1.007-.268 1.007-.67 0-.385-.419-.569-1.494-.904-1.342-.452-2.515-1.088-2.515-2.661 0-1.473 1.273-2.444 2.951-2.444 1.142 0 2.066.302 2.988 1.022l-1.057 1.606c-.638-.603-1.36-.87-1.963-.87-.353 0-.807.184-.807.62 0 .333.437.569 1.242.869 1.78.653 2.82 1.038 2.82 2.646 0 1.455-1.04 2.543-3.189 2.543-1.307 0-2.415-.419-3.322-1.19M97.515 15.063V11.28h-.971V9.472h.971V6.794l2.182-.234v2.912h2.232v1.808h-2.232v3.482c0 .703.218 1.036.722 1.036.269 0 .671-.1 1.04-.284l.57 1.758c-.536.285-1.073.502-2.18.502-1.41 0-2.334-.87-2.334-2.71M103.821 17.64h2.198V9.472h-2.198v8.168zm-.251-10.662c0-.736.62-1.34 1.359-1.34.754 0 1.375.604 1.375 1.34 0 .736-.621 1.339-1.375 1.339-.739 0-1.359-.603-1.359-1.339zM107.828 16.585l1.075-1.522c.671.635 1.376.954 2.266.954.637 0 1.005-.268 1.005-.67 0-.385-.418-.569-1.493-.904-1.341-.452-2.517-1.088-2.517-2.661 0-1.473 1.276-2.444 2.954-2.444 1.141 0 2.065.302 2.986 1.022l-1.057 1.606c-.637-.603-1.359-.87-1.963-.87-.352 0-.805.184-.805.62 0 .333.436.569 1.243.869 1.777.653 2.818 1.038 2.818 2.646 0 1.455-1.041 2.543-3.19 2.543-1.308 0-2.415-.419-3.322-1.19M119.518 14.392l-1.14 1.29v1.958h-2.198V5.322h2.199v7.447h.017l2.935-3.297h2.567l-2.885 3.246 2.935 4.922h-2.45l-1.944-3.248h-.036M129.293 16.585l1.074-1.522c.67.635 1.375.954 2.265.954.637 0 1.006-.268 1.006-.67 0-.385-.418-.569-1.492-.904-1.344-.452-2.518-1.088-2.518-2.661 0-1.473 1.275-2.444 2.953-2.444 1.142 0 2.065.302 2.986 1.022l-1.056 1.606c-.637-.603-1.359-.87-1.964-.87-.351 0-.805.184-.805.62 0 .333.437.569 1.243.869 1.779.653 2.818 1.038 2.818 2.646 0 1.455-1.04 2.543-3.188 2.543-1.308 0-2.416-.419-3.322-1.19M139.421 12.686h3.608c-.218-.854-.805-1.423-1.762-1.423-.89 0-1.594.485-1.846 1.423zm5.739 1.572h-5.754c.267.973 1.038 1.574 2.096 1.574.873.017 1.51-.367 1.963-.92l1.427 1.322c-.705.888-1.896 1.54-3.541 1.54-2.399 0-4.21-1.674-4.21-4.234 0-2.478 1.727-4.202 4.06-4.202 2.398 0 4.008 1.74 4.008 4.134 0 .268 0 .653-.049.786zM154.97 12.786v4.854h-2.196v-4.302c0-1.556-.555-2.041-1.58-2.041-1.107 0-1.86.77-1.86 2.226v4.117h-2.2V9.472h2.2v1.054h.033c.671-.786 1.61-1.188 2.617-1.188 1.762 0 2.986.937 2.986 3.448M157.449 15.063V11.28h-.974V9.472h.974V6.794l2.18-.234v2.912h2.232v1.808h-2.232v3.482c0 .703.22 1.036.722 1.036.269 0 .671-.1 1.04-.284l.572 1.758c-.538.285-1.075.502-2.18.502-1.412 0-2.334-.87-2.334-2.71M168.519 9.355v2.377c-.219-.017-.453-.017-.572-.017-1.357 0-2.096.92-2.096 2.125v3.8h-2.2V9.472h2.2v1.205h.017c.62-.87 1.508-1.339 2.483-1.339.066 0 .134 0 .168.017M175.865 13.59c0-1.305-.872-2.293-2.064-2.293-1.173 0-2.114.886-2.114 2.292 0 1.323.873 2.226 2.099 2.226 1.14 0 2.079-.887 2.079-2.226zm2.099-4.118v8.168h-2.082v-.988h-.05c-.555.72-1.394 1.122-2.45 1.122-2.266 0-3.91-1.674-3.91-4.2 0-2.479 1.661-4.236 3.86-4.236.973 0 1.81.351 2.399 1.054h.05v-.92h2.183zM180.373 17.64h2.199V5.322h-2.2zM191.394 13.59c0-1.407-.923-2.293-2.098-2.293-1.258 0-2.147.988-2.147 2.292 0 1.339.957 2.226 2.147 2.226 1.242 0 2.098-.903 2.098-2.226zm2.231-.016c0 2.526-1.645 4.2-3.926 4.2-1.09 0-1.93-.402-2.5-1.122h-.05v.988h-2.099V5.322h2.2v5.07h.049c.605-.703 1.46-1.054 2.468-1.054 2.197 0 3.858 1.757 3.858 4.236zM202.698 9.472l-4.414 11.482h-2.247l1.444-3.816-3.256-7.666h2.283l2.012 5.056h.017l1.879-5.056h2.282M209.119 9.355v2.377c-.22-.017-.454-.017-.57-.017-1.36 0-2.098.92-2.098 2.125v3.8h-2.198V9.472h2.198v1.205h.017c.62-.87 1.511-1.339 2.483-1.339.066 0 .134 0 .168.017M213.846 6.962c0 .35.268.618.621.618a.638.638 0 0 0 .639-.635.634.634 0 0 0-.639-.619c-.353 0-.621.3-.621.636zm-1.175.016c0-.953.757-1.758 1.796-1.758 1.024 0 1.83.737 1.83 1.758 0 .954-.74 1.74-1.83 1.74-.973 0-1.796-.735-1.796-1.74zm3.792 6.611c0-1.304-.871-2.292-2.062-2.292-1.175 0-2.116.886-2.116 2.292 0 1.323.873 2.226 2.099 2.226 1.14 0 2.079-.887 2.079-2.226zm2.099-4.117v8.168h-2.082v-.988h-.05c-.553.72-1.392 1.122-2.45 1.122-2.266 0-3.91-1.674-3.91-4.2 0-2.479 1.661-4.236 3.86-4.236.974 0 1.813.351 2.4 1.054h.05v-.92h2.182zM51.861 33.977l.705-.828a3.243 3.243 0 0 0 2.475 1.179c1.094 0 1.823-.514 1.823-1.366 0-1.004-.805-1.267-1.998-1.717-1.32-.49-2.664-1.054-2.664-2.596 0-1.329 1.206-2.344 2.727-2.357.992 0 1.972.363 2.827 1.04l-.666.854c-.704-.59-1.496-.878-2.161-.878-.83 0-1.584.45-1.584 1.292-.012.85.793 1.152 1.897 1.59 1.508.578 2.765.992 2.765 2.66 0 1.64-1.445 2.505-2.978 2.505a4.306 4.306 0 0 1-3.168-1.378M59.88 33.463v-3.41h-.78v-.878h.78v-2.08l1.017-.113v2.193h2.038v.877h-2.038v3.26c0 .728.178 1.091.755 1.091.364 0 .741-.15 1.031-.314l.276.891c-.339.188-.766.375-1.483.375-1.094 0-1.596-.663-1.596-1.892M69.03 32.272c0-1.254-.869-2.23-2.048-2.23-1.157 0-2.075.876-2.075 2.23 0 1.228.818 2.156 2.06 2.156 1.108 0 2.063-.865 2.063-2.156zm.98-3.097v6.105h-.98v-.965h-.014c-.489.653-1.243 1.04-2.136 1.04-1.695 0-3.003-1.215-3.003-3.083 0-1.804 1.257-3.172 2.99-3.172.843 0 1.597.35 2.112.99h.012v-.915h1.02zM72.208 33.463v-3.41h-.779v-.878h.78v-2.08l1.017-.113v2.193h2.036v.877h-2.036v3.26c0 .728.176 1.091.754 1.091.364 0 .742-.15 1.03-.314l.277.891c-.34.188-.767.375-1.482.375-1.094 0-1.597-.663-1.597-1.892M76.846 35.28h1.018v-6.105h-1.018v6.105zm-.215-7.948c0-.387.315-.714.73-.714.401 0 .728.327.728.714a.718.718 0 0 1-.728.716.711.711 0 0 1-.73-.716zM79.56 34.478l.528-.764c.478.438 1.005.728 1.872.728.73 0 1.157-.377 1.157-.816 0-.528-.566-.701-1.458-1.003-.993-.35-1.835-.765-1.835-1.88 0-.94.854-1.643 2.023-1.643.728 0 1.42.202 2.1.752l-.53.803c-.54-.464-1.104-.627-1.62-.627-.465 0-.943.277-.943.715 0 .475.503.702 1.157.952 1.294.502 2.148.716 2.136 1.919 0 .952-.716 1.741-2.187 1.741-1.006 0-1.797-.337-2.4-.877M85.956 33.463v-3.41h-.779v-.878h.779v-2.08l1.018-.113v2.193h2.036v.877h-2.036v3.26c0 .728.176 1.091.754 1.091.364 0 .742-.15 1.03-.314l.276.891c-.339.188-.766.375-1.482.375-1.093 0-1.596-.663-1.596-1.892M90.594 35.28h1.017v-6.105h-1.017v6.105zm-.213-7.948c0-.387.313-.714.728-.714.402 0 .73.327.73.714a.719.719 0 0 1-.73.716.71.71 0 0 1-.728-.716zM93.459 32.234c0-1.842 1.27-3.134 3.066-3.134.918 0 1.862.377 2.465 1.09l-.705.616c-.377-.464-.98-.764-1.71-.764-1.231 0-2.084.901-2.084 2.192 0 1.304.853 2.194 2.085 2.194.717 0 1.357-.313 1.735-.726l.703.626c-.515.577-1.433 1.027-2.526 1.027-1.76 0-3.029-1.266-3.029-3.121M100.057 34.478l.527-.764c.478.438 1.006.728 1.873.728.729 0 1.156-.377 1.156-.816 0-.528-.566-.701-1.457-1.003-.993-.35-1.835-.765-1.835-1.88 0-.94.854-1.643 2.023-1.643.728 0 1.42.202 2.099.752l-.529.803c-.54-.464-1.104-.627-1.621-.627-.464 0-.942.277-.942.715 0 .475.503.702 1.156.952 1.294.502 2.149.716 2.136 1.919 0 .952-.715 1.741-2.186 1.741-1.006 0-1.797-.337-2.4-.877M117.36 26.38v8.9h-1.117l-5.002-7.02h-.026v7.02h-1.092v-8.9h1.08l5.04 7.095h.026V26.38h1.092M124.55 32.234c0-1.303-.93-2.192-2.11-2.192-1.282 0-2.138.976-2.138 2.192 0 1.217.867 2.194 2.138 2.194 1.18 0 2.11-.902 2.11-2.194zm-5.278 0c0-1.754 1.257-3.134 3.168-3.134 1.796 0 3.141 1.278 3.141 3.134 0 1.855-1.345 3.121-3.141 3.121-1.911 0-3.168-1.366-3.168-3.121zM130.618 29.114v1.128a5.427 5.427 0 0 0-.4-.027c-1.156 0-1.86.891-1.86 2.119v2.946h-1.02v-6.105h1.02v1.079h.011c.452-.728 1.17-1.154 1.998-1.154.101 0 .188 0 .251.014M140.333 29.175l-2.124 6.105h-.955l-1.381-4.45h-.013l-1.396 4.45h-.93l-2.123-6.105h1.03l1.56 4.563h.022l1.398-4.563h.879l1.42 4.563h.023l1.56-4.563h1.03M146.238 32.272c0-1.254-.865-2.23-2.048-2.23-1.155 0-2.073.876-2.073 2.23 0 1.228.818 2.156 2.06 2.156 1.106 0 2.061-.865 2.061-2.156zm.98-3.097v6.105h-.98v-.965h-.01c-.491.653-1.245 1.04-2.137 1.04-1.698 0-3.006-1.215-3.006-3.083 0-1.804 1.259-3.172 2.992-3.172.842 0 1.597.35 2.112.99h.012v-.915h1.018z"/>
        <mask id="b" fill="#fff">
            <use xlink:href="#a"/>
        </mask>
        <path fill="#FFF" d="M154.636 29.175l-3.458 8.588h-1.08l1.094-2.734-2.588-5.854h1.093l1.985 4.651h.025l1.846-4.65h1.083M21.94 23.466l16.971-9.775C36.245 5.809 28.788.126 19.986.126 8.948.126 0 9.052 0 20.063c0 1.517.185 2.988.506 4.408l18.8-10.811 2.634 9.806" mask="url(#b)"/>
        <path fill="#FFF" d="M20.692 26.468l-2.634-9.808-16.997 9.774C3.728 34.317 11.184 40 19.986 40c11.038 0 19.986-8.926 19.986-19.937 0-1.517-.185-2.988-.506-4.406l-18.774 10.81"/>
    </g>
</svg>
