<svg width="52" height="52" viewBox="0 0 52 52" fill="none" xmlns="http://www.w3.org/2000/svg">
<path d="M27.8188 4.09253C32.5115 4.09253 37.0987 5.48406 41.0005 8.09117C44.9024 10.6983 47.9434 14.4038 49.7392 18.7393C51.535 23.0747 52.0049 27.8453 51.0894 32.4478C50.1739 37.0503 47.9142 41.278 44.596 44.5962C41.2778 47.9144 37.0501 50.1741 32.4476 51.0896C27.8451 52.0051 23.0745 51.5353 18.7391 49.7394C14.4036 47.9436 10.6981 44.9026 8.09095 41.0008C5.48385 37.099 4.09232 32.5117 4.09232 27.819H27.8188V4.09253Z" fill="white"/>
<path d="M27.8006 52.0001C21.649 52.0205 15.7255 49.6726 11.2585 45.4433C8.85631 43.1783 6.94149 40.4471 5.63114 37.4167C4.32078 34.3863 3.64244 31.1205 3.6376 27.8189V27.3642H27.3641V3.6377H27.8188C31.1204 3.64253 34.3862 4.32087 37.4166 5.63123C40.447 6.94158 43.1782 8.8564 45.4432 11.2585C48.5749 14.6024 50.6922 18.7672 51.5487 23.2679C52.4051 27.7685 51.9653 32.4199 50.2806 36.6803C48.5959 40.9407 45.7355 44.6349 42.0326 47.3326C38.3297 50.0303 33.9365 51.6206 29.3648 51.9183C28.8373 51.9819 28.319 52.0001 27.8006 52.0001ZM4.54701 28.2736C4.7429 34.2208 7.20947 39.8671 11.4398 44.0518C15.67 48.2366 21.3426 50.642 27.2916 50.7736C33.2406 50.9052 39.014 48.7529 43.4251 44.7593C47.8363 40.7656 50.5501 35.234 51.0088 29.3012C51.2082 26.1677 50.7717 23.0263 49.7255 20.0658C48.6794 17.1054 47.0452 14.3871 44.9213 12.0746C42.7974 9.76214 40.2277 7.90316 37.3667 6.60953C34.5057 5.3159 31.4126 4.61436 28.2735 4.5471V28.2736H4.54701Z" fill="#274247"/>
<path d="M51.5453 27.819C51.5453 21.5264 49.0455 15.4914 44.596 11.0419C40.1464 6.59228 34.1114 4.09253 27.8188 4.09253V27.819H51.5453Z" fill="white"/>
<path d="M52 28.2736H27.3641V3.6377H27.8188C34.2298 3.64492 40.3762 6.19489 44.9095 10.7282C49.4428 15.2615 51.9928 21.4079 52 27.8189V28.2736ZM28.2735 27.3642H51.0906C50.963 21.3528 48.5181 15.623 44.2664 11.3713C40.0147 7.11964 34.2849 4.67473 28.2735 4.5471V27.3642Z" fill="#274247"/>
<path d="M51.9181 27.8191H27.8188V51.5456C34.1114 51.5456 40.1464 49.0458 44.596 44.5963C49.0455 40.1467 51.5453 34.1118 51.5453 27.8191" fill="#274247"/>
<path d="M27.8188 52.0004H27.3641V27.3645H51.9182V27.8192H52C51.9928 34.2302 49.4428 40.3766 44.9095 44.9099C40.3762 49.4432 34.2298 51.9932 27.8188 52.0004ZM28.2735 28.2739V51.091C34.2849 50.9634 40.0147 48.5185 44.2664 44.2668C48.5181 40.0151 50.963 34.2853 51.0906 28.2739H28.2735Z" fill="#274247"/>
<path d="M34.7576 6.29337C34.6376 6.29166 34.5232 6.24263 34.4393 6.15696C34.3554 6.07043 34.3085 5.95464 34.3085 5.83412C34.3085 5.7136 34.3554 5.59781 34.4393 5.51128L34.9667 4.98382C35.0091 4.94143 35.0595 4.9078 35.1149 4.88485C35.1703 4.86191 35.2296 4.8501 35.2896 4.8501C35.3495 4.8501 35.4089 4.86191 35.4643 4.88485C35.5197 4.9078 35.57 4.94143 35.6124 4.98382C35.6548 5.02622 35.6884 5.07655 35.7114 5.13194C35.7343 5.18734 35.7461 5.24671 35.7461 5.30666C35.7461 5.36662 35.7343 5.42599 35.7114 5.48138C35.6884 5.53678 35.6548 5.58711 35.6124 5.6295L35.085 6.15696C34.9982 6.24401 34.8805 6.29307 34.7576 6.29337Z" fill="#274247"/>
<path d="M32.1294 6.29332C32.0065 6.29302 31.8888 6.24395 31.802 6.15691C31.7181 6.07038 31.6712 5.95459 31.6712 5.83407C31.6712 5.71354 31.7181 5.59776 31.802 5.51123L32.6478 4.6291C32.7343 4.54521 32.8501 4.49829 32.9706 4.49829C33.0911 4.49829 33.2069 4.54521 33.2934 4.6291C33.3361 4.67137 33.3699 4.72166 33.393 4.77707C33.4161 4.83248 33.4279 4.89191 33.4279 4.95194C33.4279 5.01197 33.4161 5.0714 33.393 5.12681C33.3699 5.18222 33.3361 5.23251 33.2934 5.27478L32.4477 6.12053C32.4093 6.1696 32.3612 6.21026 32.3065 6.23998C32.2517 6.2697 32.1915 6.28786 32.1294 6.29332Z" fill="#274247"/>
<path d="M29.4921 6.29298C29.3756 6.28801 29.2652 6.23931 29.1829 6.15657C29.1069 6.07153 29.0648 5.96145 29.0648 5.84737C29.0648 5.73328 29.1069 5.6232 29.1829 5.53817L30.0196 4.62876C30.1046 4.54545 30.2189 4.49878 30.3379 4.49878C30.4569 4.49878 30.5712 4.54545 30.6562 4.62876C30.6988 4.67103 30.7326 4.72132 30.7557 4.77673C30.7788 4.83214 30.7907 4.89157 30.7907 4.9516C30.7907 5.01163 30.7788 5.07106 30.7557 5.12647C30.7326 5.18188 30.6988 5.23217 30.6562 5.27444L29.8104 6.12019C29.772 6.16926 29.724 6.20992 29.6692 6.23964C29.6145 6.26937 29.5542 6.28752 29.4921 6.29298Z" fill="#274247"/>
<path d="M34.7576 9.68516C34.6376 9.68346 34.5232 9.63443 34.4393 9.54875C34.3554 9.46222 34.3085 9.34643 34.3085 9.22591C34.3085 9.10539 34.3554 8.9896 34.4393 8.90307L35.285 8.05732C35.3716 7.97343 35.4873 7.92651 35.6079 7.92651C35.7284 7.92651 35.8442 7.97343 35.9307 8.05732C35.9733 8.09959 36.0072 8.14988 36.0302 8.20529C36.0533 8.2607 36.0652 8.32013 36.0652 8.38016C36.0652 8.44019 36.0533 8.49962 36.0302 8.55503C36.0072 8.61044 35.9733 8.66073 35.9307 8.703L35.085 9.54875C34.9982 9.6358 34.8805 9.68486 34.7576 9.68516Z" fill="#274247"/>
<path d="M32.1294 9.68516C32.0065 9.68486 31.8888 9.6358 31.802 9.54875C31.7181 9.46222 31.6712 9.34643 31.6712 9.22591C31.6712 9.10539 31.7181 8.9896 31.802 8.90307L32.6478 8.05732C32.7343 7.97343 32.8501 7.92651 32.9706 7.92651C33.0911 7.92651 33.2069 7.97343 33.2934 8.05732C33.3361 8.09959 33.3699 8.14988 33.393 8.20529C33.4161 8.2607 33.4279 8.32013 33.4279 8.38016C33.4279 8.44019 33.4161 8.49962 33.393 8.55503C33.3699 8.61044 33.3361 8.66073 33.2934 8.703L32.4477 9.54875C32.3637 9.63443 32.2493 9.68346 32.1294 9.68516Z" fill="#274247"/>
<path d="M29.4921 9.68531C29.3692 9.68501 29.2514 9.63595 29.1647 9.5489C29.0808 9.46237 29.0339 9.34658 29.0339 9.22606C29.0339 9.10554 29.0808 8.98975 29.1647 8.90322L30.0195 8.05747C30.1045 7.97416 30.2188 7.92749 30.3378 7.92749C30.4568 7.92749 30.5711 7.97416 30.6561 8.05747C30.6987 8.09974 30.7326 8.15003 30.7556 8.20544C30.7787 8.26085 30.7906 8.32028 30.7906 8.38031C30.7906 8.44034 30.7787 8.49977 30.7556 8.55518C30.7326 8.61059 30.6987 8.66088 30.6561 8.70315L29.8104 9.5489C29.7264 9.63458 29.612 9.68361 29.4921 9.68531Z" fill="#274247"/>
<path d="M37.3676 9.68515C37.2477 9.68344 37.1333 9.63441 37.0493 9.54874C36.9654 9.46221 36.9185 9.34642 36.9185 9.2259C36.9185 9.10538 36.9654 8.98959 37.0493 8.90306L37.8951 8.05731C37.9375 8.01491 37.9878 7.98128 38.0432 7.95834C38.0986 7.93539 38.158 7.92358 38.2179 7.92358C38.2779 7.92358 38.3372 7.93539 38.3926 7.95834C38.448 7.98128 38.4984 8.01491 38.5408 8.05731C38.5832 8.09971 38.6168 8.15004 38.6397 8.20543C38.6627 8.26082 38.6745 8.32019 38.6745 8.38015C38.6745 8.44011 38.6627 8.49948 38.6397 8.55487C38.6168 8.61026 38.5832 8.66059 38.5408 8.70299L37.695 9.54874C37.6083 9.63579 37.4905 9.68485 37.3676 9.68515Z" fill="#274247"/>
<path d="M40.0321 9.68515C39.9122 9.68344 39.7978 9.63441 39.7138 9.54874C39.6712 9.50647 39.6374 9.45618 39.6143 9.40077C39.5912 9.34536 39.5793 9.28593 39.5793 9.2259C39.5793 9.16587 39.5912 9.10644 39.6143 9.05103C39.6374 8.99562 39.6712 8.94533 39.7138 8.90306L40.5596 8.05731C40.6452 7.97169 40.7613 7.92358 40.8824 7.92358C41.0035 7.92358 41.1197 7.97169 41.2053 8.05731C41.2909 8.14293 41.339 8.25906 41.339 8.38015C41.339 8.50124 41.2909 8.61737 41.2053 8.70299L40.3595 9.54874C40.2728 9.63579 40.155 9.68485 40.0321 9.68515Z" fill="#274247"/>
<path d="M34.7576 13.0684C34.6396 13.0656 34.5266 13.0204 34.4393 12.9411C34.3554 12.8545 34.3085 12.7388 34.3085 12.6182C34.3085 12.4977 34.3554 12.3819 34.4393 12.2954L35.285 11.4496C35.3707 11.364 35.4868 11.3159 35.6079 11.3159C35.729 11.3159 35.8451 11.364 35.9307 11.4496C36.0163 11.5353 36.0644 11.6514 36.0644 11.7725C36.0644 11.8936 36.0163 12.0097 35.9307 12.0953L35.085 12.9411C34.9953 13.0224 34.8787 13.0678 34.7576 13.0684Z" fill="#274247"/>
<path d="M32.1294 13.0684C32.0083 13.0678 31.8917 13.0224 31.802 12.9411C31.7181 12.8545 31.6712 12.7388 31.6712 12.6182C31.6712 12.4977 31.7181 12.3819 31.802 12.2954L32.6478 11.4496C32.6902 11.4072 32.7405 11.3736 32.7959 11.3507C32.8513 11.3277 32.9106 11.3159 32.9706 11.3159C33.0306 11.3159 33.0899 11.3277 33.1453 11.3507C33.2007 11.3736 33.251 11.4072 33.2934 11.4496C33.3358 11.492 33.3695 11.5424 33.3924 11.5978C33.4154 11.6532 33.4272 11.7125 33.4272 11.7725C33.4272 11.8324 33.4154 11.8918 33.3924 11.9472C33.3695 12.0026 33.3358 12.0529 33.2934 12.0953L32.4477 12.9411C32.3603 13.0204 32.2473 13.0656 32.1294 13.0684Z" fill="#274247"/>
<path d="M29.4921 13.0683C29.371 13.0677 29.2544 13.0223 29.1647 12.941C29.0808 12.8545 29.0339 12.7387 29.0339 12.6182C29.0339 12.4976 29.0808 12.3818 29.1647 12.2953L30.0195 11.4496C30.0603 11.4061 30.1097 11.3714 30.1644 11.3477C30.2191 11.324 30.2782 11.3118 30.3378 11.3118C30.3975 11.3118 30.4565 11.324 30.5112 11.3477C30.566 11.3714 30.6153 11.4061 30.6561 11.4496C30.6987 11.4918 30.7326 11.5421 30.7556 11.5975C30.7787 11.6529 30.7906 11.7124 30.7906 11.7724C30.7906 11.8324 30.7787 11.8919 30.7556 11.9473C30.7326 12.0027 30.6987 12.053 30.6561 12.0952L29.8104 12.941C29.723 13.0203 29.61 13.0655 29.4921 13.0683Z" fill="#274247"/>
<path d="M37.3676 13.0682C37.2497 13.0654 37.1367 13.0202 37.0493 12.9409C36.9654 12.8543 36.9185 12.7386 36.9185 12.618C36.9185 12.4975 36.9654 12.3817 37.0493 12.2952L37.8951 11.4494C37.9374 11.4068 37.9876 11.373 38.043 11.3499C38.0985 11.3268 38.1579 11.3149 38.2179 11.3149C38.2779 11.3149 38.3374 11.3268 38.3928 11.3499C38.4482 11.373 38.4985 11.4068 38.5408 11.4494C38.6247 11.536 38.6716 11.6518 38.6716 11.7723C38.6716 11.8928 38.6247 12.0086 38.5408 12.0951L37.695 12.9409C37.6053 13.0222 37.4887 13.0676 37.3676 13.0682Z" fill="#274247"/>
<path d="M40.0321 13.0682C39.9142 13.0654 39.8012 13.0202 39.7138 12.9409C39.6712 12.8986 39.6374 12.8483 39.6143 12.7929C39.5912 12.7375 39.5793 12.6781 39.5793 12.618C39.5793 12.558 39.5912 12.4986 39.6143 12.4432C39.6374 12.3878 39.6712 12.3375 39.7138 12.2952L40.5596 11.4494C40.6019 11.4068 40.6522 11.373 40.7076 11.3499C40.763 11.3268 40.8224 11.3149 40.8824 11.3149C40.9425 11.3149 41.0019 11.3268 41.0573 11.3499C41.1127 11.373 41.163 11.4068 41.2053 11.4494C41.2892 11.536 41.3361 11.6518 41.3361 11.7723C41.3361 11.8928 41.2892 12.0086 41.2053 12.0951L40.3595 12.9409C40.2698 13.0222 40.1532 13.0676 40.0321 13.0682Z" fill="#274247"/>
<path d="M42.6695 13.0682C42.5512 13.0671 42.4376 13.0216 42.3512 12.9409C42.3086 12.8986 42.2747 12.8483 42.2516 12.7929C42.2286 12.7375 42.2167 12.6781 42.2167 12.618C42.2167 12.558 42.2286 12.4986 42.2516 12.4432C42.2747 12.3878 42.3086 12.3375 42.3512 12.2952L43.1969 11.4494C43.2392 11.4068 43.2895 11.373 43.3449 11.3499C43.4003 11.3268 43.4597 11.3149 43.5198 11.3149C43.5798 11.3149 43.6392 11.3268 43.6946 11.3499C43.75 11.373 43.8003 11.4068 43.8426 11.4494C43.9265 11.536 43.9734 11.6518 43.9734 11.7723C43.9734 11.8928 43.9265 12.0086 43.8426 12.0951L42.9969 12.9409C42.9072 13.0222 42.7906 13.0676 42.6695 13.0682Z" fill="#274247"/>
<path d="M45.3068 13.0684C45.1885 13.0672 45.0749 13.0218 44.9885 12.9411C44.9459 12.8988 44.9121 12.8485 44.889 12.7931C44.8659 12.7377 44.854 12.6782 44.854 12.6182C44.854 12.5582 44.8659 12.4988 44.889 12.4434C44.9121 12.3879 44.9459 12.3377 44.9885 12.2954L45.3341 11.9498C45.4191 11.8665 45.5334 11.8198 45.6524 11.8198C45.7714 11.8198 45.8857 11.8665 45.9707 11.9498C46.0133 11.9921 46.0471 12.0424 46.0702 12.0978C46.0933 12.1532 46.1052 12.2126 46.1052 12.2726C46.1052 12.3327 46.0933 12.3921 46.0702 12.4475C46.0471 12.5029 46.0133 12.5532 45.9707 12.5955L45.6251 12.9411C45.5397 13.0234 45.4254 13.0691 45.3068 13.0684Z" fill="#274247"/>
<path d="M34.7576 16.4512C34.6686 16.45 34.582 16.4227 34.5084 16.3726C34.4348 16.3226 34.3775 16.252 34.3436 16.1697C34.3097 16.0874 34.3007 15.997 34.3177 15.9096C34.3347 15.8222 34.377 15.7418 34.4393 15.6782L35.2851 14.8325C35.3274 14.7899 35.3777 14.7561 35.4331 14.733C35.4885 14.7099 35.5479 14.698 35.6079 14.698C35.668 14.698 35.7274 14.7099 35.7828 14.733C35.8382 14.7561 35.8885 14.7899 35.9308 14.8325C35.9743 14.8733 36.0089 14.9226 36.0326 14.9774C36.0563 15.0321 36.0686 15.0911 36.0686 15.1508C36.0686 15.2104 36.0563 15.2695 36.0326 15.3242C36.0089 15.379 35.9743 15.4283 35.9308 15.4691L35.085 16.3148C34.9983 16.4019 34.8805 16.4509 34.7576 16.4512Z" fill="#274247"/>
<path d="M32.1295 16.4512C32.0066 16.4509 31.8888 16.4019 31.8021 16.3148C31.7188 16.2298 31.6721 16.1156 31.6721 15.9965C31.6721 15.8775 31.7188 15.7632 31.8021 15.6782L32.6478 14.8325C32.6901 14.7899 32.7404 14.7561 32.7958 14.733C32.8512 14.7099 32.9106 14.698 32.9707 14.698C33.0307 14.698 33.0901 14.7099 33.1455 14.733C33.2009 14.7561 33.2512 14.7899 33.2935 14.8325C33.337 14.8733 33.3717 14.9226 33.3954 14.9774C33.4191 15.0321 33.4313 15.0911 33.4313 15.1508C33.4313 15.2104 33.4191 15.2695 33.3954 15.3242C33.3717 15.379 33.337 15.4283 33.2935 15.4691L32.4477 16.3148C32.3638 16.4005 32.2494 16.4495 32.1295 16.4512Z" fill="#274247"/>
<path d="M29.4922 16.4515C29.3693 16.4512 29.2515 16.4022 29.1648 16.3151C29.0815 16.2301 29.0348 16.1158 29.0348 15.9968C29.0348 15.8778 29.0815 15.7635 29.1648 15.6785L30.0196 14.8328C30.104 14.7484 30.2185 14.7009 30.3379 14.7009C30.4573 14.7009 30.5718 14.7484 30.6562 14.8328C30.7406 14.9172 30.788 15.0317 30.788 15.1511C30.788 15.2704 30.7406 15.3849 30.6562 15.4694L29.8104 16.3151C29.7265 16.4008 29.6121 16.4498 29.4922 16.4515Z" fill="#274247"/>
<path d="M37.3676 16.4512C37.2786 16.45 37.192 16.4227 37.1184 16.3726C37.0447 16.3226 36.9875 16.252 36.9536 16.1697C36.9197 16.0874 36.9107 15.997 36.9277 15.9096C36.9447 15.8222 36.987 15.7418 37.0493 15.6782L37.8951 14.8325C37.9374 14.7899 37.9876 14.7561 38.0431 14.733C38.0985 14.7099 38.1579 14.698 38.2179 14.698C38.278 14.698 38.3374 14.7099 38.3928 14.733C38.4482 14.7561 38.4985 14.7899 38.5408 14.8325C38.6241 14.9175 38.6708 15.0318 38.6708 15.1508C38.6708 15.2698 38.6241 15.3841 38.5408 15.4691L37.695 16.3148C37.6083 16.4019 37.4905 16.4509 37.3676 16.4512Z" fill="#274247"/>
<path d="M40.0321 16.4512C39.9122 16.4495 39.7978 16.4005 39.7138 16.3148C39.6703 16.274 39.6357 16.2247 39.612 16.17C39.5883 16.1152 39.576 16.0562 39.576 15.9965C39.576 15.9369 39.5883 15.8779 39.612 15.8231C39.6357 15.7684 39.6703 15.7191 39.7138 15.6782L40.5596 14.8325C40.6019 14.7899 40.6522 14.7561 40.7076 14.733C40.763 14.7099 40.8224 14.698 40.8824 14.698C40.9425 14.698 41.0019 14.7099 41.0573 14.733C41.1127 14.7561 41.163 14.7899 41.2053 14.8325C41.2886 14.9175 41.3353 15.0318 41.3353 15.1508C41.3353 15.2698 41.2886 15.3841 41.2053 15.4691L40.3595 16.3148C40.2728 16.4019 40.155 16.4509 40.0321 16.4512Z" fill="#274247"/>
<path d="M42.6694 16.4512C42.5805 16.45 42.4938 16.4227 42.4202 16.3726C42.3466 16.3226 42.2893 16.252 42.2554 16.1697C42.2215 16.0874 42.2125 15.997 42.2295 15.9096C42.2466 15.8222 42.2888 15.7418 42.3512 15.6782L43.1969 14.8325C43.2392 14.7899 43.2895 14.7561 43.3449 14.733C43.4003 14.7099 43.4597 14.698 43.5197 14.698C43.5798 14.698 43.6392 14.7099 43.6946 14.733C43.75 14.7561 43.8003 14.7899 43.8426 14.8325C43.9259 14.9175 43.9726 15.0318 43.9726 15.1508C43.9726 15.2698 43.9259 15.3841 43.8426 15.4691L42.9968 16.3148C42.9101 16.4019 42.7923 16.4509 42.6694 16.4512Z" fill="#274247"/>
<path d="M45.3068 16.4512C45.2178 16.45 45.1311 16.4227 45.0575 16.3726C44.9839 16.3226 44.9266 16.252 44.8927 16.1697C44.8588 16.0874 44.8498 15.997 44.8669 15.9096C44.8839 15.8222 44.9262 15.7418 44.9885 15.6782L45.8342 14.8325C45.8765 14.7899 45.9268 14.7561 45.9822 14.733C46.0376 14.7099 46.0971 14.698 46.1571 14.698C46.2171 14.698 46.2765 14.7099 46.3319 14.733C46.3874 14.7561 46.4376 14.7899 46.4799 14.8325C46.5632 14.9175 46.6099 15.0318 46.6099 15.1508C46.6099 15.2698 46.5632 15.3841 46.4799 15.4691L45.6251 16.3148C45.5845 16.3585 45.5352 16.3932 45.4804 16.4167C45.4255 16.4402 45.3664 16.452 45.3068 16.4512Z" fill="#274247"/>
<path d="M47.9441 16.4514C47.8258 16.4503 47.7122 16.4048 47.6258 16.3241C47.5832 16.2818 47.5493 16.2315 47.5262 16.1761C47.5032 16.1207 47.4913 16.0613 47.4913 16.0012C47.4913 15.9412 47.5032 15.8818 47.5262 15.8264C47.5493 15.771 47.5832 15.7207 47.6258 15.6784L47.8349 15.4601C47.9206 15.3745 48.0367 15.3264 48.1578 15.3264C48.2789 15.3264 48.395 15.3745 48.4806 15.4601C48.5662 15.5458 48.6143 15.6619 48.6143 15.783C48.6143 15.9041 48.5662 16.0202 48.4806 16.1058L48.2715 16.315C48.1847 16.402 48.067 16.4511 47.9441 16.4514Z" fill="#274247"/>
<path d="M34.7576 19.8526C34.6376 19.8509 34.5232 19.8019 34.4393 19.7162C34.3554 19.6297 34.3085 19.5139 34.3085 19.3934C34.3085 19.2729 34.3554 19.1571 34.4393 19.0706L35.285 18.2248C35.3716 18.1409 35.4873 18.094 35.6079 18.094C35.7284 18.094 35.8442 18.1409 35.9307 18.2248C35.9733 18.2671 36.0072 18.3174 36.0302 18.3728C36.0533 18.4282 36.0652 18.4876 36.0652 18.5476C36.0652 18.6077 36.0533 18.6671 36.0302 18.7225C36.0072 18.7779 35.9733 18.8282 35.9307 18.8705L35.085 19.7162C34.9982 19.8033 34.8805 19.8523 34.7576 19.8526Z" fill="#274247"/>
<path d="M32.1294 19.8526C32.0065 19.8523 31.8888 19.8033 31.802 19.7162C31.7181 19.6297 31.6712 19.5139 31.6712 19.3934C31.6712 19.2729 31.7181 19.1571 31.802 19.0706L32.6478 18.2248C32.7343 18.1409 32.8501 18.094 32.9706 18.094C33.0911 18.094 33.2069 18.1409 33.2934 18.2248C33.3361 18.2671 33.3699 18.3174 33.393 18.3728C33.4161 18.4282 33.4279 18.4876 33.4279 18.5476C33.4279 18.6077 33.4161 18.6671 33.393 18.7225C33.3699 18.7779 33.3361 18.8282 33.2934 18.8705L32.4477 19.7162C32.3637 19.8019 32.2493 19.8509 32.1294 19.8526Z" fill="#274247"/>
<path d="M29.4921 19.8526C29.3692 19.8522 29.2514 19.8032 29.1647 19.7161C29.0808 19.6296 29.0339 19.5138 29.0339 19.3933C29.0339 19.2728 29.0808 19.157 29.1647 19.0705L30.0195 18.2247C30.1045 18.1414 30.2188 18.0947 30.3378 18.0947C30.4568 18.0947 30.5711 18.1414 30.6561 18.2247C30.6987 18.267 30.7326 18.3173 30.7556 18.3727C30.7787 18.4281 30.7906 18.4875 30.7906 18.5475C30.7906 18.6076 30.7787 18.667 30.7556 18.7224C30.7326 18.7778 30.6987 18.8281 30.6561 18.8704L29.8104 19.7161C29.7264 19.8018 29.612 19.8508 29.4921 19.8526Z" fill="#274247"/>
<path d="M37.3676 19.8526C37.2477 19.8509 37.1333 19.8019 37.0493 19.7162C36.9654 19.6297 36.9185 19.5139 36.9185 19.3934C36.9185 19.2729 36.9654 19.1571 37.0493 19.0705L37.8951 18.2248C37.9375 18.1824 37.9878 18.1488 38.0432 18.1258C38.0986 18.1029 38.158 18.0911 38.2179 18.0911C38.2779 18.0911 38.3372 18.1029 38.3926 18.1258C38.448 18.1488 38.4984 18.1824 38.5408 18.2248C38.5832 18.2672 38.6168 18.3175 38.6397 18.3729C38.6627 18.4283 38.6745 18.4877 38.6745 18.5476C38.6745 18.6076 38.6627 18.667 38.6397 18.7223C38.6168 18.7777 38.5832 18.8281 38.5408 18.8705L37.695 19.7162C37.6083 19.8033 37.4905 19.8523 37.3676 19.8526Z" fill="#274247"/>
<path d="M40.0321 19.8526C39.9122 19.8509 39.7978 19.8019 39.7138 19.7162C39.6712 19.674 39.6374 19.6237 39.6143 19.5682C39.5912 19.5128 39.5793 19.4534 39.5793 19.3934C39.5793 19.3334 39.5912 19.2739 39.6143 19.2185C39.6374 19.1631 39.6712 19.1128 39.7138 19.0705L40.5596 18.2248C40.6452 18.1392 40.7613 18.0911 40.8824 18.0911C41.0035 18.0911 41.1197 18.1392 41.2053 18.2248C41.2909 18.3104 41.339 18.4265 41.339 18.5476C41.339 18.6687 41.2909 18.7848 41.2053 18.8705L40.3595 19.7162C40.2728 19.8033 40.155 19.8523 40.0321 19.8526Z" fill="#274247"/>
<path d="M42.6695 19.8526C42.61 19.8523 42.5512 19.84 42.4965 19.8166C42.4419 19.7932 42.3924 19.759 42.3512 19.7162C42.3086 19.674 42.2747 19.6237 42.2516 19.5682C42.2286 19.5128 42.2167 19.4534 42.2167 19.3934C42.2167 19.3334 42.2286 19.2739 42.2516 19.2185C42.2747 19.1631 42.3086 19.1128 42.3512 19.0705L43.1969 18.2248C43.2393 18.1824 43.2897 18.1488 43.345 18.1258C43.4004 18.1029 43.4598 18.0911 43.5198 18.0911C43.5797 18.0911 43.6391 18.1029 43.6945 18.1258C43.7499 18.1488 43.8002 18.1824 43.8426 18.2248C43.885 18.2672 43.9186 18.3175 43.9416 18.3729C43.9645 18.4283 43.9763 18.4877 43.9763 18.5476C43.9763 18.6076 43.9645 18.667 43.9416 18.7223C43.9186 18.7777 43.885 18.8281 43.8426 18.8705L42.9969 19.7162C42.9101 19.8033 42.7924 19.8523 42.6695 19.8526Z" fill="#274247"/>
<path d="M45.3068 19.8526C45.2473 19.8523 45.1885 19.84 45.1339 19.8166C45.0792 19.7932 45.0298 19.759 44.9885 19.7162C44.9459 19.674 44.9121 19.6237 44.889 19.5682C44.8659 19.5128 44.854 19.4534 44.854 19.3934C44.854 19.3334 44.8659 19.2739 44.889 19.2185C44.9121 19.1631 44.9459 19.1128 44.9885 19.0705L45.8343 18.2248C45.8767 18.1824 45.927 18.1488 45.9824 18.1258C46.0378 18.1029 46.0971 18.0911 46.1571 18.0911C46.2171 18.0911 46.2764 18.1029 46.3318 18.1258C46.3872 18.1488 46.4375 18.1824 46.4799 18.2248C46.5223 18.2672 46.556 18.3175 46.5789 18.3729C46.6019 18.4283 46.6137 18.4877 46.6137 18.5476C46.6137 18.6076 46.6019 18.667 46.5789 18.7223C46.556 18.7777 46.5223 18.8281 46.4799 18.8705L45.6251 19.7162C45.5845 19.7599 45.5352 19.7946 45.4804 19.8181C45.4256 19.8416 45.3664 19.8534 45.3068 19.8526Z" fill="#274247"/>
<path d="M47.9441 19.8526C47.8846 19.8523 47.8258 19.84 47.7711 19.8166C47.7165 19.7932 47.667 19.759 47.6258 19.7162C47.5832 19.674 47.5493 19.6237 47.5262 19.5682C47.5032 19.5128 47.4913 19.4534 47.4913 19.3934C47.4913 19.3334 47.5032 19.2739 47.5262 19.2185C47.5493 19.1631 47.5832 19.1128 47.6258 19.0705L48.4715 18.2248C48.5571 18.1392 48.6733 18.0911 48.7944 18.0911C48.9155 18.0911 49.0316 18.1392 49.1172 18.2248C49.2028 18.3104 49.2509 18.4265 49.2509 18.5476C49.2509 18.6687 49.2028 18.7848 49.1172 18.8705L48.2624 19.7162C48.2218 19.7599 48.1725 19.7946 48.1176 19.8181C48.0628 19.8416 48.0037 19.8534 47.9441 19.8526Z" fill="#274247"/>
<path d="M34.7576 23.2447C34.6376 23.243 34.5232 23.194 34.4393 23.1083C34.3554 23.0218 34.3085 22.906 34.3085 22.7855C34.3085 22.665 34.3554 22.5492 34.4393 22.4626L35.285 21.6169C35.3707 21.5313 35.4868 21.4832 35.6079 21.4832C35.729 21.4832 35.8451 21.5313 35.9307 21.6169C36.0163 21.7025 36.0644 21.8186 36.0644 21.9397C36.0644 22.0608 36.0163 22.1769 35.9307 22.2626L35.085 23.1083C34.9982 23.1954 34.8805 23.2444 34.7576 23.2447Z" fill="#274247"/>
<path d="M32.1294 23.2447C32.0065 23.2444 31.8888 23.1954 31.802 23.1083C31.7181 23.0218 31.6712 22.906 31.6712 22.7855C31.6712 22.665 31.7181 22.5492 31.802 22.4626L32.6478 21.6169C32.6902 21.5745 32.7405 21.5409 32.7959 21.5179C32.8513 21.495 32.9106 21.4832 32.9706 21.4832C33.0306 21.4832 33.0899 21.495 33.1453 21.5179C33.2007 21.5409 33.251 21.5745 33.2934 21.6169C33.3358 21.6593 33.3695 21.7096 33.3924 21.765C33.4154 21.8204 33.4272 21.8798 33.4272 21.9397C33.4272 21.9997 33.4154 22.059 33.3924 22.1144C33.3695 22.1698 33.3358 22.2202 33.2934 22.2626L32.4477 23.1083C32.3637 23.194 32.2493 23.243 32.1294 23.2447Z" fill="#274247"/>
<path d="M29.4921 23.2449C29.3692 23.2446 29.2514 23.1955 29.1647 23.1085C29.0808 23.0219 29.0339 22.9062 29.0339 22.7856C29.0339 22.6651 29.0808 22.5493 29.1647 22.4628L30.0195 21.617C30.0603 21.5735 30.1097 21.5389 30.1644 21.5152C30.2191 21.4915 30.2782 21.4792 30.3378 21.4792C30.3975 21.4792 30.4565 21.4915 30.5112 21.5152C30.566 21.5389 30.6153 21.5735 30.6561 21.617C30.6987 21.6593 30.7326 21.7096 30.7556 21.765C30.7787 21.8204 30.7906 21.8799 30.7906 21.9399C30.7906 21.9999 30.7787 22.0593 30.7556 22.1148C30.7326 22.1702 30.6987 22.2205 30.6561 22.2627L29.8104 23.1085C29.7264 23.1941 29.612 23.2432 29.4921 23.2449Z" fill="#274247"/>
<path d="M37.3676 23.2448C37.2477 23.2431 37.1333 23.194 37.0493 23.1084C36.9654 23.0218 36.9185 22.906 36.9185 22.7855C36.9185 22.665 36.9654 22.5492 37.0493 22.4627L37.8951 21.6169C37.9374 21.5743 37.9876 21.5405 38.043 21.5174C38.0985 21.4943 38.1579 21.4824 38.2179 21.4824C38.2779 21.4824 38.3374 21.4943 38.3928 21.5174C38.4482 21.5405 38.4985 21.5743 38.5408 21.6169C38.6247 21.7035 38.6716 21.8192 38.6716 21.9398C38.6716 22.0603 38.6247 22.1761 38.5408 22.2626L37.695 23.1084C37.6083 23.1954 37.4905 23.2445 37.3676 23.2448Z" fill="#274247"/>
<path d="M40.0321 23.2448C39.9122 23.2431 39.7978 23.194 39.7138 23.1084C39.6712 23.0661 39.6374 23.0158 39.6143 22.9604C39.5912 22.905 39.5793 22.8455 39.5793 22.7855C39.5793 22.7255 39.5912 22.6661 39.6143 22.6106C39.6374 22.5552 39.6712 22.5049 39.7138 22.4627L40.5596 21.6169C40.6019 21.5743 40.6522 21.5405 40.7076 21.5174C40.763 21.4943 40.8224 21.4824 40.8824 21.4824C40.9425 21.4824 41.0019 21.4943 41.0573 21.5174C41.1127 21.5405 41.163 21.5743 41.2053 21.6169C41.2892 21.7035 41.3361 21.8192 41.3361 21.9398C41.3361 22.0603 41.2892 22.1761 41.2053 22.2626L40.3595 23.1084C40.2728 23.1954 40.155 23.2445 40.0321 23.2448Z" fill="#274247"/>
<path d="M42.6695 23.2448C42.61 23.2444 42.5512 23.2322 42.4965 23.2087C42.4419 23.1853 42.3924 23.1512 42.3512 23.1084C42.3086 23.0661 42.2747 23.0158 42.2516 22.9604C42.2286 22.905 42.2167 22.8455 42.2167 22.7855C42.2167 22.7255 42.2286 22.6661 42.2516 22.6106C42.2747 22.5552 42.3086 22.5049 42.3512 22.4627L43.1969 21.6169C43.2392 21.5743 43.2895 21.5405 43.3449 21.5174C43.4003 21.4943 43.4597 21.4824 43.5198 21.4824C43.5798 21.4824 43.6392 21.4943 43.6946 21.5174C43.75 21.5405 43.8003 21.5743 43.8426 21.6169C43.9265 21.7035 43.9734 21.8192 43.9734 21.9398C43.9734 22.0603 43.9265 22.1761 43.8426 22.2626L42.9969 23.1084C42.9101 23.1954 42.7924 23.2445 42.6695 23.2448Z" fill="#274247"/>
<path d="M45.3068 23.2448C45.2473 23.2444 45.1885 23.2322 45.1339 23.2087C45.0792 23.1853 45.0298 23.1512 44.9885 23.1084C44.9459 23.0661 44.9121 23.0158 44.889 22.9604C44.8659 22.905 44.854 22.8455 44.854 22.7855C44.854 22.7255 44.8659 22.6661 44.889 22.6106C44.9121 22.5552 44.9459 22.5049 44.9885 22.4627L45.8343 21.6169C45.8765 21.5743 45.9268 21.5405 45.9822 21.5174C46.0376 21.4943 46.0971 21.4824 46.1571 21.4824C46.2171 21.4824 46.2766 21.4943 46.332 21.5174C46.3874 21.5405 46.4377 21.5743 46.4799 21.6169C46.5638 21.7035 46.6107 21.8192 46.6107 21.9398C46.6107 22.0603 46.5638 22.1761 46.4799 22.2626L45.6251 23.1084C45.5845 23.152 45.5352 23.1867 45.4804 23.2102C45.4256 23.2337 45.3664 23.2455 45.3068 23.2448Z" fill="#274247"/>
<path d="M47.9441 23.2448C47.8846 23.2444 47.8258 23.2322 47.7711 23.2087C47.7165 23.1853 47.667 23.1512 47.6258 23.1084C47.5832 23.0661 47.5493 23.0158 47.5262 22.9604C47.5032 22.905 47.4913 22.8455 47.4913 22.7855C47.4913 22.7255 47.5032 22.6661 47.5262 22.6106C47.5493 22.5552 47.5832 22.5049 47.6258 22.4627L48.4715 21.6169C48.5138 21.5743 48.5641 21.5405 48.6195 21.5174C48.6749 21.4943 48.7343 21.4824 48.7944 21.4824C48.8544 21.4824 48.9138 21.4943 48.9692 21.5174C49.0246 21.5405 49.0749 21.5743 49.1172 21.6169C49.2011 21.7035 49.248 21.8192 49.248 21.9398C49.248 22.0603 49.2011 22.1761 49.1172 22.2626L48.2624 23.1084C48.2218 23.152 48.1725 23.1867 48.1176 23.2102C48.0628 23.2337 48.0037 23.2455 47.9441 23.2448Z" fill="#274247"/>
<path d="M50.5813 23.2448C50.5216 23.2456 50.4625 23.2338 50.4077 23.2103C50.3529 23.1868 50.3036 23.1521 50.263 23.1084C50.2204 23.0662 50.1865 23.0159 50.1634 22.9605C50.1404 22.905 50.1285 22.8456 50.1285 22.7856C50.1285 22.7256 50.1404 22.6661 50.1634 22.6107C50.1865 22.5553 50.2204 22.505 50.263 22.4627L50.4449 22.2809C50.5299 22.1975 50.6441 22.1509 50.7632 22.1509C50.8822 22.1509 50.9965 22.1975 51.0815 22.2809C51.1241 22.3231 51.1579 22.3734 51.181 22.4288C51.2041 22.4842 51.2159 22.5437 51.2159 22.6037C51.2159 22.6637 51.2041 22.7232 51.181 22.7786C51.1579 22.834 51.1241 22.8843 51.0815 22.9265L50.8996 23.1084C50.859 23.1521 50.8097 23.1868 50.7549 23.2103C50.7 23.2338 50.6409 23.2456 50.5813 23.2448Z" fill="#274247"/>
<path d="M34.7576 26.6275C34.6396 26.6247 34.5266 26.5795 34.4393 26.5002C34.3554 26.4137 34.3085 26.2979 34.3085 26.1774C34.3085 26.0568 34.3554 25.9411 34.4393 25.8545L35.285 25.0088C35.3273 24.9662 35.3776 24.9323 35.433 24.9092C35.4884 24.8862 35.5478 24.8743 35.6079 24.8743C35.6679 24.8743 35.7273 24.8862 35.7827 24.9092C35.8382 24.9323 35.8884 24.9662 35.9307 25.0088C35.9742 25.0496 36.0089 25.0989 36.0326 25.1536C36.0563 25.2084 36.0685 25.2674 36.0685 25.3271C36.0685 25.3867 36.0563 25.4457 36.0326 25.5005C36.0089 25.5552 35.9742 25.6045 35.9307 25.6454L35.085 26.5002C34.9953 26.5816 34.8787 26.6269 34.7576 26.6275Z" fill="#274247"/>
<path d="M32.1294 26.6275C32.0083 26.6269 31.8917 26.5816 31.802 26.5002C31.7181 26.4137 31.6712 26.2979 31.6712 26.1774C31.6712 26.0568 31.7181 25.9411 31.802 25.8545L32.6478 25.0088C32.69 24.9662 32.7403 24.9323 32.7957 24.9092C32.8511 24.8862 32.9106 24.8743 32.9706 24.8743C33.0306 24.8743 33.0901 24.8862 33.1455 24.9092C33.2009 24.9323 33.2512 24.9662 33.2934 25.0088C33.3369 25.0496 33.3716 25.0989 33.3953 25.1536C33.419 25.2084 33.4312 25.2674 33.4312 25.3271C33.4312 25.3867 33.419 25.4457 33.3953 25.5005C33.3716 25.5552 33.3369 25.6045 33.2934 25.6454L32.4477 26.5002C32.3603 26.5795 32.2473 26.6247 32.1294 26.6275Z" fill="#274247"/>
<path d="M29.4921 26.6278C29.371 26.6272 29.2544 26.5818 29.1647 26.5005C29.0808 26.4139 29.0339 26.2982 29.0339 26.1776C29.0339 26.0571 29.0808 25.9413 29.1647 25.8548L30.0195 25.009C30.1039 24.9246 30.2184 24.8772 30.3378 24.8772C30.4572 24.8772 30.5717 24.9246 30.6561 25.009C30.7405 25.0935 30.788 25.2079 30.788 25.3273C30.788 25.4467 30.7405 25.5612 30.6561 25.6456L29.8104 26.5005C29.723 26.5798 29.61 26.625 29.4921 26.6278Z" fill="#274247"/>
<path d="M37.3676 26.6275C37.2497 26.6247 37.1367 26.5795 37.0493 26.5002C36.9654 26.4137 36.9185 26.2979 36.9185 26.1774C36.9185 26.0568 36.9654 25.9411 37.0493 25.8545L37.8951 25.0088C37.9374 24.9662 37.9876 24.9323 38.043 24.9092C38.0985 24.8862 38.1579 24.8743 38.2179 24.8743C38.2779 24.8743 38.3374 24.8862 38.3928 24.9092C38.4482 24.9323 38.4985 24.9662 38.5408 25.0088C38.6241 25.0938 38.6707 25.208 38.6707 25.3271C38.6707 25.4461 38.6241 25.5604 38.5408 25.6454L37.695 26.5002C37.6053 26.5816 37.4887 26.6269 37.3676 26.6275Z" fill="#274247"/>
<path d="M40.0321 26.6275C39.9142 26.6247 39.8012 26.5795 39.7138 26.5002C39.6712 26.4579 39.6374 26.4076 39.6143 26.3522C39.5912 26.2968 39.5793 26.2374 39.5793 26.1774C39.5793 26.1173 39.5912 26.0579 39.6143 26.0025C39.6374 25.9471 39.6712 25.8968 39.7138 25.8545L40.5596 25.0088C40.6019 24.9662 40.6522 24.9323 40.7076 24.9092C40.763 24.8862 40.8224 24.8743 40.8824 24.8743C40.9425 24.8743 41.0019 24.8862 41.0573 24.9092C41.1127 24.9323 41.163 24.9662 41.2053 25.0088C41.2886 25.0938 41.3353 25.208 41.3353 25.3271C41.3353 25.4461 41.2886 25.5604 41.2053 25.6454L40.3595 26.5002C40.2698 26.5816 40.1532 26.6269 40.0321 26.6275Z" fill="#274247"/>
<path d="M42.6695 26.6275C42.5512 26.6264 42.4376 26.581 42.3512 26.5002C42.3086 26.4579 42.2747 26.4076 42.2516 26.3522C42.2286 26.2968 42.2167 26.2374 42.2167 26.1774C42.2167 26.1173 42.2286 26.0579 42.2516 26.0025C42.2747 25.9471 42.3086 25.8968 42.3512 25.8545L43.1969 25.0088C43.2392 24.9662 43.2895 24.9323 43.3449 24.9092C43.4003 24.8862 43.4597 24.8743 43.5198 24.8743C43.5798 24.8743 43.6392 24.8862 43.6946 24.9092C43.75 24.9323 43.8003 24.9662 43.8426 25.0088C43.9259 25.0938 43.9726 25.208 43.9726 25.3271C43.9726 25.4461 43.9259 25.5604 43.8426 25.6454L42.9969 26.5002C42.9072 26.5816 42.7906 26.6269 42.6695 26.6275Z" fill="#274247"/>
<path d="M45.3068 26.6275C45.1885 26.6264 45.0749 26.581 44.9885 26.5002C44.9459 26.4579 44.9121 26.4076 44.889 26.3522C44.8659 26.2968 44.854 26.2374 44.854 26.1774C44.854 26.1173 44.8659 26.0579 44.889 26.0025C44.9121 25.9471 44.9459 25.8968 44.9885 25.8545L45.8343 25.0088C45.8765 24.9662 45.9268 24.9323 45.9822 24.9092C46.0376 24.8862 46.0971 24.8743 46.1571 24.8743C46.2171 24.8743 46.2766 24.8862 46.332 24.9092C46.3874 24.9323 46.4377 24.9662 46.4799 25.0088C46.5633 25.0938 46.6099 25.208 46.6099 25.3271C46.6099 25.4461 46.5633 25.5604 46.4799 25.6454L45.6251 26.5002C45.5397 26.5825 45.4254 26.6282 45.3068 26.6275Z" fill="#274247"/>
<path d="M47.9441 26.6275C47.8258 26.6264 47.7122 26.581 47.6258 26.5002C47.5832 26.4579 47.5493 26.4076 47.5262 26.3522C47.5032 26.2968 47.4913 26.2374 47.4913 26.1774C47.4913 26.1173 47.5032 26.0579 47.5262 26.0025C47.5493 25.9471 47.5832 25.8968 47.6258 25.8545L48.4715 25.0088C48.5138 24.9662 48.5641 24.9323 48.6195 24.9092C48.6749 24.8862 48.7343 24.8743 48.7944 24.8743C48.8544 24.8743 48.9138 24.8862 48.9692 24.9092C49.0246 24.9323 49.0749 24.9662 49.1172 25.0088C49.2005 25.0938 49.2472 25.208 49.2472 25.3271C49.2472 25.4461 49.2005 25.5604 49.1172 25.6454L48.2624 26.5002C48.1769 26.5825 48.0627 26.6282 47.9441 26.6275Z" fill="#274247"/>
<path d="M50.5814 26.6278C50.4924 26.6266 50.4057 26.5992 50.3321 26.5492C50.2585 26.4991 50.2012 26.4286 50.1673 26.3463C50.1334 26.264 50.1244 26.1735 50.1415 26.0862C50.1585 25.9988 50.2008 25.9184 50.2631 25.8548L50.8815 25.2364C50.9223 25.1929 50.9716 25.1583 51.0264 25.1346C51.0811 25.1109 51.1401 25.0986 51.1998 25.0986C51.2594 25.0986 51.3184 25.1109 51.3732 25.1346C51.4279 25.1583 51.4772 25.1929 51.5181 25.2364C51.5607 25.2787 51.5945 25.329 51.6176 25.3844C51.6407 25.4398 51.6526 25.4992 51.6526 25.5593C51.6526 25.6193 51.6407 25.6787 51.6176 25.7341C51.5945 25.7895 51.5607 25.8398 51.5181 25.8821L50.8997 26.5005C50.8142 26.5828 50.7 26.6285 50.5814 26.6278Z" fill="#274247"/>
<path d="M0.454712 24.1813C0.454712 17.8887 2.95446 11.8537 7.40404 7.40416C11.8536 2.95458 17.8886 0.454834 24.1812 0.454834V24.1813H0.454712Z" fill="white"/>
<path d="M24.6359 24.6359H0V24.1812C0.007221 17.7702 2.55719 11.6238 7.09049 7.09048C11.6238 2.55719 17.7702 0.007221 24.1812 0H24.6359V24.6359ZM0.90941 23.7265H23.7265V0.90941C17.7151 1.03703 11.9853 3.48194 7.73362 7.73362C3.48194 11.9853 1.03703 17.7151 0.90941 23.7265Z" fill="#274247"/>
</svg>
