<svg xmlns="http://www.w3.org/2000/svg" viewBox="0 0 37 40"><path d="M31,24V18.93a2.51,2.51,0,0,1,5,0V32.11c0,2-2.78,6.89-7.48,6.89H21.14a7.87,7.87,0,0,1-6.72-5.33c-1.57-4.74-4.27-13.17-4.27-13.17a2.22,2.22,0,0,1,1.5-2.81,2.33,2.33,0,0,1,2.91,1.45L16,24" fill="none" stroke="#00824d" stroke-linecap="round" stroke-miterlimit="10" stroke-width="2"/><path d="M26,23V17.82a2.5,2.5,0,0,1,5,0V24" fill="none" stroke="#00824d" stroke-linecap="round" stroke-miterlimit="10" stroke-width="2"/><path d="M21,21V16.9a2.5,2.5,0,1,1,5,0V23" fill="none" stroke="#00824d" stroke-linecap="round" stroke-miterlimit="10" stroke-width="2"/><path d="M16,24V7.05a2.5,2.5,0,0,1,5,0V22" fill="none" stroke="#00824d" stroke-linecap="round" stroke-miterlimit="10" stroke-width="2"/><path d="M13,10.8a6.43,6.43,0,1,1,10.94,0" fill="none" stroke="#00824d" stroke-linecap="round" stroke-miterlimit="10" stroke-width="2"/><line x1="26" y1="6" x2="33" y2="6" fill="none" stroke="#00824d" stroke-linecap="square" stroke-miterlimit="10" stroke-width="2"/><polyline points="31.07 2.07 34.95 5.95 31.07 9.84" fill="none" stroke="#00824d" stroke-linecap="round" stroke-miterlimit="10" stroke-width="2"/><line x1="11" y1="6" x2="4" y2="6" fill="none" stroke="#00824d" stroke-linecap="square" stroke-miterlimit="10" stroke-width="2"/><polyline points="6 2 2.08 5.92 6 9.84" fill="none" stroke="#00824d" stroke-linecap="round" stroke-miterlimit="10" stroke-width="2"/></svg>